  0
SECTION
  2
HEADER
  9
$ACADVER
  1
AC1024
  9
$ACADMAINTVER
 70
     6
  9
$DWGCODEPAGE
  3
ANSI_1252
  9
$INSBASE
 10
0.0
 20
0.0
 30
0.0
  9
$EXTMIN
 10
1.000000000000000E+20
 20
1.000000000000000E+20
 30
1.000000000000000E+20
  9
$EXTMAX
 10
-1.000000000000000E+20
 20
-1.000000000000000E+20
 30
-1.000000000000000E+20
  9
$LIMMIN
 10
0.0
 20
0.0
  9
$LIMMAX
 10
12.0
 20
9.0
  9
$ORTHOMODE
 70
     0
  9
$REGENMODE
 70
     1
  9
$FILLMODE
 70
     1
  9
$QTEXTMODE
 70
     0
  9
$MIRRTEXT
 70
     1
  9
$LTSCALE
 40
1.0
  9
$ATTMODE
 70
     1
  9
$TEXTSIZE
 40
0.2
  9
$TRACEWID
 40
0.05
  9
$TEXTSTYLE
  7
Standard
  9
$CLAYER
  8
0
  9
$CELTYPE
  6
ByLayer
  9
$CECOLOR
 62
   256
  9
$CELTSCALE
 40
1.0
  9
$DISPSILH
 70
     0
  9
$DIMSCALE
 40
1.0
  9
$DIMASZ
 40
0.18
  9
$DIMEXO
 40
0.0625
  9
$DIMDLI
 40
0.38
  9
$DIMRND
 40
0.0
  9
$DIMDLE
 40
0.0
  9
$DIMEXE
 40
0.18
  9
$DIMTP
 40
0.0
  9
$DIMTM
 40
0.0
  9
$DIMTXT
 40
0.18
  9
$DIMCEN
 40
0.09
  9
$DIMTSZ
 40
0.0
  9
$DIMTOL
 70
     0
  9
$DIMLIM
 70
     0
  9
$DIMTIH
 70
     1
  9
$DIMTOH
 70
     1
  9
$DIMSE1
 70
     0
  9
$DIMSE2
 70
     0
  9
$DIMTAD
 70
     0
  9
$DIMZIN
 70
     0
  9
$DIMBLK
  1

  9
$DIMASO
 70
     1
  9
$DIMSHO
 70
     1
  9
$DIMPOST
  1

  9
$DIMAPOST
  1

  9
$DIMALT
 70
     0
  9
$DIMALTD
 70
     2
  9
$DIMALTF
 40
25.4
  9
$DIMLFAC
 40
1.0
  9
$DIMTOFL
 70
     0
  9
$DIMTVP
 40
0.0
  9
$DIMTIX
 70
     0
  9
$DIMSOXD
 70
     0
  9
$DIMSAH
 70
     0
  9
$DIMBLK1
  1

  9
$DIMBLK2
  1

  9
$DIMSTYLE
  2
Standard
  9
$DIMCLRD
 70
     0
  9
$DIMCLRE
 70
     0
  9
$DIMCLRT
 70
     0
  9
$DIMTFAC
 40
1.0
  9
$DIMGAP
 40
0.09
  9
$DIMJUST
 70
     0
  9
$DIMSD1
 70
     0
  9
$DIMSD2
 70
     0
  9
$DIMTOLJ
 70
     1
  9
$DIMTZIN
 70
     0
  9
$DIMALTZ
 70
     0
  9
$DIMALTTZ
 70
     0
  9
$DIMUPT
 70
     0
  9
$DIMDEC
 70
     4
  9
$DIMTDEC
 70
     4
  9
$DIMALTU
 70
     2
  9
$DIMALTTD
 70
     2
  9
$DIMTXSTY
  7
Standard
  9
$DIMAUNIT
 70
     0
  9
$DIMADEC
 70
     0
  9
$DIMALTRND
 40
0.0
  9
$DIMAZIN
 70
     0
  9
$DIMDSEP
 70
    46
  9
$DIMATFIT
 70
     3
  9
$DIMFRAC
 70
     0
  9
$DIMLDRBLK
  1

  9
$DIMLUNIT
 70
     2
  9
$DIMLWD
 70
    -2
  9
$DIMLWE
 70
    -2
  9
$DIMTMOVE
 70
     0
  9
$DIMFXL
 40
1.0
  9
$DIMFXLON
 70
     0
  9
$DIMJOGANG
 40
0.7853981633974483
  9
$DIMTFILL
 70
     0
  9
$DIMTFILLCLR
 70
     0
  9
$DIMARCSYM
 70
     0
  9
$DIMLTYPE
  6

  9
$DIMLTEX1
  6

  9
$DIMLTEX2
  6

  9
$DIMTXTDIRECTION
 70
     0
  9
$LUNITS
 70
     2
  9
$LUPREC
 70
     4
  9
$SKETCHINC
 40
0.1
  9
$FILLETRAD
 40
0.5
  9
$AUNITS
 70
     0
  9
$AUPREC
 70
     0
  9
$MENU
  1
.
  9
$ELEVATION
 40
0.0
  9
$PELEVATION
 40
0.0
  9
$THICKNESS
 40
0.0
  9
$LIMCHECK
 70
     0
  9
$CHAMFERA
 40
0.5
  9
$CHAMFERB
 40
0.5
  9
$CHAMFERC
 40
1.0
  9
$CHAMFERD
 40
0.0
  9
$SKPOLY
 70
     0
  9
$TDCREATE
 40
2458948.550247349
  9
$TDUCREATE
 40
2458948.216914016
  9
$TDUPDATE
 40
2458948.550247396
  9
$TDUUPDATE
 40
2458948.216914062
  9
$TDINDWG
 40
0.0000000116
  9
$TDUSRTIMER
 40
0.0000000116
  9
$USRTIMER
 70
     1
  9
$ANGBASE
 50
0.0
  9
$ANGDIR
 70
     0
  9
$PDMODE
 70
     0
  9
$PDSIZE
 40
0.0
  9
$PLINEWID
 40
0.0
  9
$SPLFRAME
 70
     0
  9
$SPLINETYPE
 70
     6
  9
$SPLINESEGS
 70
     8
  9
$HANDSEED
  5
D2
  9
$SURFTAB1
 70
     6
  9
$SURFTAB2
 70
     6
  9
$SURFTYPE
 70
     6
  9
$SURFU
 70
     6
  9
$SURFV
 70
     6
  9
$UCSBASE
  2

  9
$UCSNAME
  2

  9
$UCSORG
 10
0.0
 20
0.0
 30
0.0
  9
$UCSXDIR
 10
1.0
 20
0.0
 30
0.0
  9
$UCSYDIR
 10
0.0
 20
1.0
 30
0.0
  9
$UCSORTHOREF
  2

  9
$UCSORTHOVIEW
 70
     0
  9
$UCSORGTOP
 10
0.0
 20
0.0
 30
0.0
  9
$UCSORGBOTTOM
 10
0.0
 20
0.0
 30
0.0
  9
$UCSORGLEFT
 10
0.0
 20
0.0
 30
0.0
  9
$UCSORGRIGHT
 10
0.0
 20
0.0
 30
0.0
  9
$UCSORGFRONT
 10
0.0
 20
0.0
 30
0.0
  9
$UCSORGBACK
 10
0.0
 20
0.0
 30
0.0
  9
$PUCSBASE
  2

  9
$PUCSNAME
  2

  9
$PUCSORG
 10
0.0
 20
0.0
 30
0.0
  9
$PUCSXDIR
 10
1.0
 20
0.0
 30
0.0
  9
$PUCSYDIR
 10
0.0
 20
1.0
 30
0.0
  9
$PUCSORTHOREF
  2

  9
$PUCSORTHOVIEW
 70
     0
  9
$PUCSORGTOP
 10
0.0
 20
0.0
 30
0.0
  9
$PUCSORGBOTTOM
 10
0.0
 20
0.0
 30
0.0
  9
$PUCSORGLEFT
 10
0.0
 20
0.0
 30
0.0
  9
$PUCSORGRIGHT
 10
0.0
 20
0.0
 30
0.0
  9
$PUCSORGFRONT
 10
0.0
 20
0.0
 30
0.0
  9
$PUCSORGBACK
 10
0.0
 20
0.0
 30
0.0
  9
$USERI1
 70
     0
  9
$USERI2
 70
     0
  9
$USERI3
 70
     0
  9
$USERI4
 70
     0
  9
$USERI5
 70
     0
  9
$USERR1
 40
0.0
  9
$USERR2
 40
0.0
  9
$USERR3
 40
0.0
  9
$USERR4
 40
0.0
  9
$USERR5
 40
0.0
  9
$WORLDVIEW
 70
     1
  9
$SHADEDGE
 70
     3
  9
$SHADEDIF
 70
    70
  9
$TILEMODE
 70
     1
  9
$MAXACTVP
 70
    64
  9
$PINSBASE
 10
0.0
 20
0.0
 30
0.0
  9
$PLIMCHECK
 70
     0
  9
$PEXTMIN
 10
1.000000000000000E+20
 20
1.000000000000000E+20
 30
1.000000000000000E+20
  9
$PEXTMAX
 10
-1.000000000000000E+20
 20
-1.000000000000000E+20
 30
-1.000000000000000E+20
  9
$PLIMMIN
 10
0.0
 20
0.0
  9
$PLIMMAX
 10
12.0
 20
9.0
  9
$UNITMODE
 70
     0
  9
$VISRETAIN
 70
     1
  9
$PLINEGEN
 70
     0
  9
$PSLTSCALE
 70
     1
  9
$TREEDEPTH
 70
  3020
  9
$CMLSTYLE
  2
Standard
  9
$CMLJUST
 70
     0
  9
$CMLSCALE
 40
1.0
  9
$PROXYGRAPHICS
 70
     1
  9
$MEASUREMENT
 70
     0
  9
$CELWEIGHT
370
    -1
  9
$ENDCAPS
280
     0
  9
$JOINSTYLE
280
     0
  9
$LWDISPLAY
290
     1
  9
$INSUNITS
 70
     4
  9
$HYPERLINKBASE
  1

  9
$STYLESHEET
  1

  9
$XEDIT
290
     1
  9
$CEPSNTYPE
380
     0
  9
$PSTYLEMODE
290
     1
  9
$FINGERPRINTGUID
  2
{8EB574F8-1C11-4DA7-963C-3CE948058F6F}
  9
$VERSIONGUID
  2
{FAEB1C32-E019-11D5-929B-00C0DF256EC4}
  9
$EXTNAMES
290
     1
  9
$PSVPSCALE
 40
0.0
  9
$OLESTARTUP
290
     0
  9
$SORTENTS
280
   127
  9
$INDEXCTL
280
     0
  9
$HIDETEXT
280
     1
  9
$XCLIPFRAME
280
     2
  9
$HALOGAP
280
     0
  9
$OBSCOLOR
 70
   257
  9
$OBSLTYPE
280
     0
  9
$INTERSECTIONDISPLAY
280
     0
  9
$INTERSECTIONCOLOR
 70
   257
  9
$DIMASSOC
280
     2
  9
$PROJECTNAME
  1

  9
$CAMERADISPLAY
290
     0
  9
$LENSLENGTH
 40
50.0
  9
$CAMERAHEIGHT
 40
0.0
  9
$STEPSPERSEC
 40
2.0
  9
$STEPSIZE
 40
6.0
  9
$3DDWFPREC
 40
2.0
  9
$PSOLWIDTH
 40
0.25
  9
$PSOLHEIGHT
 40
4.0
  9
$LOFTANG1
 40
1.570796326794897
  9
$LOFTANG2
 40
1.570796326794897
  9
$LOFTMAG1
 40
0.0
  9
$LOFTMAG2
 40
0.0
  9
$LOFTPARAM
 70
     7
  9
$LOFTNORMALS
280
     1
  9
$LATITUDE
 40
37.795
  9
$LONGITUDE
 40
-122.394
  9
$NORTHDIRECTION
 40
0.0
  9
$TIMEZONE
 70
 -8000
  9
$LIGHTGLYPHDISPLAY
280
     1
  9
$TILEMODELIGHTSYNCH
280
     1
  9
$CMATERIAL
347
3C
  9
$SOLIDHIST
280
     1
  9
$SHOWHIST
280
     1
  9
$DWFFRAME
280
     2
  9
$DGNFRAME
280
     2
  9
$REALWORLDSCALE
290
     1
  9
$INTERFERECOLOR
 62
   256
  9
$CSHADOW
280
     0
  9
$SHADOWPLANELOCATION
 40
0.0
  0
ENDSEC
  0
SECTION
  2
CLASSES
  0
CLASS
  1
ACDBDICTIONARYWDFLT
  2
AcDbDictionaryWithDefault
  3
ObjectDBX Classes
 90
        0
 91
        4
280
     0
281
     0
  0
CLASS
  1
VISUALSTYLE
  2
AcDbVisualStyle
  3
ObjectDBX Classes
 90
     4095
 91
        4
280
     0
281
     0
  0
CLASS
  1
MATERIAL
  2
AcDbMaterial
  3
ObjectDBX Classes
 90
     1153
 91
        4
280
     0
281
     0
  0
CLASS
  1
SUN
  2
AcDbSun
  3
SCENEOE
 90
     1024
 91
        4
280
     0
281
     0
  0
ENDSEC
  0
SECTION
  2
TABLES
  0
TABLE
  2
VPORT
  5
8
330
0
100
AcDbSymbolTable
 70
     1
  0
VPORT
  5
29
330
8
100
AcDbSymbolTableRecord
100
AcDbViewportTableRecord
  2
*Active
 70
     0
 10
0.0
 20
0.0
 11
1.0
 21
1.0
 12
0.0
 22
0.0
 13
0.0
 23
0.0
 14
0.5
 24
0.5
 15
0.5
 25
0.5
 16
0.0
 26
0.0
 36
1.0
 17
148.5000416295239
 27
-105.0000721959545
 37
0.0
 40
210.0001443919091
 41
1.414285138322461
 42
50.0
 43
0.0
 44
0.0
 50
0.0
 51
0.0
 71
     0
 72
   100
 73
     1
 74
     3
 75
     0
 76
     0
 77
     0
 78
     0
281
     0
 65
     1
110
0.0
120
0.0
130
0.0
111
1.0
121
0.0
131
0.0
112
0.0
122
1.0
132
0.0
 79
     0
146
0.0
 60
     3
 61
     5
292
     1
282
     1
141
0.0
142
0.0
 63
   250
361
3F
  0
ENDTAB
  0
TABLE
  2
LTYPE
  5
5
330
0
100
AcDbSymbolTable
 70
     1
  0
LTYPE
  5
14
330
5
100
AcDbSymbolTableRecord
100
AcDbLinetypeTableRecord
  2
ByBlock
 70
     0
  3

 72
    65
 73
     0
 40
0.0
  0
LTYPE
  5
15
330
5
100
AcDbSymbolTableRecord
100
AcDbLinetypeTableRecord
  2
ByLayer
 70
     0
  3

 72
    65
 73
     0
 40
0.0
  0
LTYPE
  5
16
330
5
100
AcDbSymbolTableRecord
100
AcDbLinetypeTableRecord
  2
Continuous
 70
     0
  3
Solid line
 72
    65
 73
     0
 40
0.0
  0
ENDTAB
  0
TABLE
  2
LAYER
  5
2
330
0
100
AcDbSymbolTable
 70
     2
  0
LAYER
  5
10
330
2
100
AcDbSymbolTableRecord
100
AcDbLayerTableRecord
  2
0
 70
     0
 62
     7
  6
Continuous
370
    -3
390
F
347
3E
  0
LAYER
  5
40
330
2
100
AcDbSymbolTableRecord
100
AcDbLayerTableRecord
  2
Layer 1
 70
     0
 62
     7
  6
Continuous
370
    -3
390
F
347
3E
  0
ENDTAB
  0
TABLE
  2
STYLE
  5
3
330
0
100
AcDbSymbolTable
 70
     1
  0
STYLE
  5
11
330
3
100
AcDbSymbolTableRecord
100
AcDbTextStyleTableRecord
  2
Standard
 70
     0
 40
0.0
 41
1.0
 50
0.0
 71
     0
 42
0.2
  3
txt
  4

  0
ENDTAB
  0
TABLE
  2
VIEW
  5
6
330
0
100
AcDbSymbolTable
 70
     0
  0
ENDTAB
  0
TABLE
  2
UCS
  5
7
330
0
100
AcDbSymbolTable
 70
     0
  0
ENDTAB
  0
TABLE
  2
APPID
  5
9
330
0
100
AcDbSymbolTable
 70
     1
  0
APPID
  5
12
330
9
100
AcDbSymbolTableRecord
100
AcDbRegAppTableRecord
  2
ACAD
 70
     0
  0
ENDTAB
  0
TABLE
  2
DIMSTYLE
  5
A
330
0
100
AcDbSymbolTable
 70
     1
100
AcDbDimStyleTable
  0
DIMSTYLE
105
27
330
A
100
AcDbSymbolTableRecord
100
AcDbDimStyleTableRecord
  2
Standard
 70
     0
178
     0
340
11
  0
ENDTAB
  0
TABLE
  2
BLOCK_RECORD
  5
1
330
0
100
AcDbSymbolTable
 70
     2
  0
BLOCK_RECORD
  5
1F
330
1
100
AcDbSymbolTableRecord
100
AcDbBlockTableRecord
  2
*Model_Space
340
22
 70
     0
280
     1
281
     0
  0
BLOCK_RECORD
  5
1B
330
1
100
AcDbSymbolTableRecord
100
AcDbBlockTableRecord
  2
*Paper_Space
340
1E
 70
     0
280
     1
281
     0
  0
BLOCK_RECORD
  5
23
330
1
100
AcDbSymbolTableRecord
100
AcDbBlockTableRecord
  2
*Paper_Space0
340
26
 70
     0
280
     1
281
     0
  0
BLOCK_RECORD
  5
41
330
1
100
AcDbSymbolTableRecord
100
AcDbBlockTableRecord
  2
block 2
340
0
102
{BLKREFS
331
42
102
}
 70
     0
280
     1
281
     0
  0
ENDTAB
  0
ENDSEC
  0
SECTION
  2
BLOCKS
  0
BLOCK
  5
20
330
1F
100
AcDbEntity
  8
0
100
AcDbBlockBegin
  2
*Model_Space
 70
     0
 10
0.0
 20
0.0
 30
0.0
  3
*Model_Space
  1

  0
ENDBLK
  5
21
330
1F
100
AcDbEntity
  8
0
100
AcDbBlockEnd
  0
BLOCK
  5
1C
330
1B
100
AcDbEntity
 67
     1
  8
0
100
AcDbBlockBegin
  2
*Paper_Space
 70
     0
 10
0.0
 20
0.0
 30
0.0
  3
*Paper_Space
  1

  0
ENDBLK
  5
1D
330
1B
100
AcDbEntity
 67
     1
  8
0
100
AcDbBlockEnd
  0
BLOCK
  5
24
330
23
100
AcDbEntity
  8
0
100
AcDbBlockBegin
  2
*Paper_Space0
 70
     0
 10
0.0
 20
0.0
 30
0.0
  3
*Paper_Space0
  1

  0
ENDBLK
  5
25
330
23
100
AcDbEntity
  8
0
100
AcDbBlockEnd
  0
BLOCK
  5
43
330
41
100
AcDbEntity
  8
0
100
AcDbBlockBegin
  2
block 2
 70
     0
 10
0.0
 20
0.0
 30
0.0
  3
block 2
  1

  0
SPLINE
  5
45
330
41
100
AcDbEntity
  8
Layer 1
 62
    18
420
    65793
370
    18
100
AcDbSpline
210
0.0
220
0.0
230
1.0
 70
    11
 71
     3
 72
    23
 73
    19
 74
     0
 42
0.0000000001
 43
0.0000000001
 12
1.0
 22
0.0
 32
0.0
 13
1.0
 23
0.0
 33
0.0
 40
0.0
 40
0.0
 40
0.0
 40
0.0
 40
1.0
 40
1.0
 40
1.0
 40
2.0
 40
2.0
 40
2.0
 40
3.0
 40
3.0
 40
3.0
 40
4.0
 40
4.0
 40
4.0
 40
5.0
 40
5.0
 40
5.0
 40
6.0
 40
6.0
 40
6.0
 40
6.0
 10
-200.1086203685356
 20
-109.6504047333084
 30
0.0
 10
-200.1086203685356
 20
-109.6504047333084
 30
0.0
 10
-200.1086203685356
 20
-119.5909693738354
 30
0.0
 10
-200.1086203685356
 20
-119.5909693738354
 30
0.0
 10
-200.1086203685356
 20
-119.5909693738354
 30
0.0
 10
-200.5058155747124
 20
-119.650591057577
 30
0.0
 10
-200.5058155747124
 20
-119.650591057577
 30
0.0
 10
-200.5058155747124
 20
-119.650591057577
 30
0.0
 10
-200.5058155747124
 20
-109.6504047333084
 30
0.0
 10
-200.5058155747124
 20
-109.6504047333084
 30
0.0
 10
-200.5058155747124
 20
-99.61951399552746
 30
0.0
 10
-198.9969929432537
 20
-89.64684537144727
 30
0.0
 10
-196.0293876922595
 20
-80.06715448300018
 30
0.0
 10
-196.0293876922595
 20
-80.06715448300018
 30
0.0
 10
-195.6594087404161
 20
-80.24459843233733
 30
0.0
 10
-195.6594087404161
 20
-80.24459843233733
 30
0.0
 10
-198.608604262411
 20
-89.7681988599152
 30
0.0
 10
-200.1086203685356
 20
-99.68124580025378
 30
0.0
 10
-200.1086203685356
 20
-109.6504047333084
 30
0.0
  0
SPLINE
  5
46
330
41
100
AcDbEntity
  8
Layer 1
 62
    18
420
    65793
370
    18
100
AcDbSpline
210
0.0
220
0.0
230
1.0
 70
    11
 71
     3
 72
    20
 73
    16
 74
     0
 42
0.0000000001
 43
0.0000000001
 12
1.0
 22
0.0
 32
0.0
 13
1.0
 23
0.0
 33
0.0
 40
0.0
 40
0.0
 40
0.0
 40
0.0
 40
1.0
 40
1.0
 40
1.0
 40
2.0
 40
2.0
 40
2.0
 40
3.0
 40
3.0
 40
3.0
 40
4.0
 40
4.0
 40
4.0
 40
5.0
 40
5.0
 40
5.0
 40
5.0
 10
-80.63897193605936
 20
-11.6438116045982
 30
0.0
 10
-87.17843065431381
 20
-10.31805273448693
 30
0.0
 10
-93.83321394393701
 20
-9.650264038364817
 30
0.0
 10
-100.5056533479221
 20
-9.650264038364817
 30
0.0
 10
-107.1784372614557
 20
-9.650264038364817
 30
0.0
 10
-113.833608124321
 20
-10.31805273448693
 30
0.0
 10
-120.3727008011802
 20
-11.6438116045982
 30
0.0
 10
-120.3727008011802
 20
-11.6438116045982
 30
0.0
 10
-120.2538019432455
 20
-12.02848012451313
 30
0.0
 10
-120.2538019432455
 20
-12.02848012451313
 30
0.0
 10
-107.2197353435852
 20
-9.386522524262164
 30
0.0
 10
-93.79193739365436
 20
-9.386522524262164
 30
0.0
 10
-80.75787079399404
 20
-12.02848012451313
 30
0.0
 10
-80.75787079399404
 20
-12.02848012451313
 30
0.0
 10
-80.63897193605936
 20
-11.6438116045982
 30
0.0
 10
-80.63897193605936
 20
-11.6438116045982
 30
0.0
  0
POLYLINE
  5
47
330
41
100
AcDbEntity
  8
Layer 1
 62
    18
420
    65793
370
    18
100
AcDb2dPolyline
 66
     1
 10
0.0
 20
0.0
 30
0.0
  0
VERTEX
  5
48
330
47
100
AcDbEntity
  8
Layer 1
 62
    18
420
    65793
370
    18
100
AcDbVertex
100
AcDb2dVertex
 10
-182.6965236547941
 20
-121.9937727518697
 30
0.0
  0
VERTEX
  5
49
330
47
100
AcDbEntity
  8
Layer 1
 62
    18
420
    65793
370
    18
100
AcDbVertex
100
AcDb2dVertex
 10
-192.241634397308
 20
-116.4830195455108
 30
0.0
  0
SEQEND
  5
4A
330
47
100
AcDbEntity
  8
Layer 1
 62
    18
420
    65793
370
    18
  0
POLYLINE
  5
4B
330
41
100
AcDbEntity
  8
Layer 1
 62
    18
420
    65793
370
    18
100
AcDb2dPolyline
 66
     1
 10
0.0
 20
0.0
 30
0.0
  0
VERTEX
  5
4C
330
4B
100
AcDbEntity
  8
Layer 1
 62
    18
420
    65793
370
    18
100
AcDbVertex
100
AcDb2dVertex
 10
-100.5056533479221
 20
-68.65056021366466
 30
0.0
  0
VERTEX
  5
4D
330
4B
100
AcDbEntity
  8
Layer 1
 62
    18
420
    65793
370
    18
100
AcDbVertex
100
AcDb2dVertex
 10
-100.5056533479221
 20
-74.65060310631613
 30
0.0
  0
SEQEND
  5
4E
330
4B
100
AcDbEntity
  8
Layer 1
 62
    18
420
    65793
370
    18
  0
SPLINE
  5
4F
330
41
100
AcDbEntity
  8
Layer 1
 62
    18
420
    65793
370
    18
100
AcDbSpline
210
0.0
220
0.0
230
1.0
 70
     8
 71
     3
 72
   116
 73
   112
 74
     0
 42
0.0000000001
 43
0.0000000001
 12
1.0
 22
0.0
 32
0.0
 13
1.0
 23
0.0
 33
0.0
 40
0.0
 40
0.0
 40
0.0
 40
0.0
 40
1.0
 40
1.0
 40
1.0
 40
2.0
 40
2.0
 40
2.0
 40
3.0
 40
3.0
 40
3.0
 40
4.0
 40
4.0
 40
4.0
 40
5.0
 40
5.0
 40
5.0
 40
6.0
 40
6.0
 40
6.0
 40
7.0
 40
7.0
 40
7.0
 40
8.0
 40
8.0
 40
8.0
 40
9.0
 40
9.0
 40
9.0
 40
10.0
 40
10.0
 40
10.0
 40
11.0
 40
11.0
 40
11.0
 40
12.0
 40
12.0
 40
12.0
 40
13.0
 40
13.0
 40
13.0
 40
14.0
 40
14.0
 40
14.0
 40
15.0
 40
15.0
 40
15.0
 40
16.0
 40
16.0
 40
16.0
 40
17.0
 40
17.0
 40
17.0
 40
18.0
 40
18.0
 40
18.0
 40
19.0
 40
19.0
 40
19.0
 40
20.0
 40
20.0
 40
20.0
 40
21.0
 40
21.0
 40
21.0
 40
22.0
 40
22.0
 40
22.0
 40
23.0
 40
23.0
 40
23.0
 40
24.0
 40
24.0
 40
24.0
 40
25.0
 40
25.0
 40
25.0
 40
26.0
 40
26.0
 40
26.0
 40
27.0
 40
27.0
 40
27.0
 40
28.0
 40
28.0
 40
28.0
 40
29.0
 40
29.0
 40
29.0
 40
30.0
 40
30.0
 40
30.0
 40
31.0
 40
31.0
 40
31.0
 40
32.0
 40
32.0
 40
32.0
 40
33.0
 40
33.0
 40
33.0
 40
34.0
 40
34.0
 40
34.0
 40
35.0
 40
35.0
 40
35.0
 40
36.0
 40
36.0
 40
36.0
 40
37.0
 40
37.0
 40
37.0
 40
37.0
 10
-100.5056533479221
 20
0.3492117349599675
 30
0.0
 10
-127.9295392799225
 20
0.3492117349599675
 30
0.0
 10
-153.0088654794361
 20
-9.685877712943586
 30
0.0
 10
-172.2726551813801
 20
-26.28406784686913
 30
0.0
 10
-195.68403840171
 20
-46.45626463273319
 30
0.0
 10
-210.5059803671343
 20
-76.32276632746927
 30
0.0
 10
-210.5059803671343
 20
-109.6504047333084
 30
0.0
 10
-210.5059803671343
 20
-109.6504047333084
 30
0.0
 10
-210.5059803671343
 20
-129.6507773818456
 30
0.0
 10
-210.5059803671343
 20
-129.6507773818456
 30
0.0
 10
-210.5059803671343
 20
-135.1735238268625
 30
0.0
 10
-206.0289065292779
 20
-139.6506191965657
 30
0.0
 10
-200.5058155747124
 20
-139.6506191965657
 30
0.0
 10
-200.5058155747124
 20
-139.6506191965657
 30
0.0
 10
-195.899959761248
 20
-139.6506191965657
 30
0.0
 10
-195.899959761248
 20
-139.6506191965657
 30
0.0
 10
-195.1947702472642
 20
-137.4090678190879
 30
0.0
 10
-194.4158126262024
 20
-135.2056278104156
 30
0.0
 10
-193.5663382069269
 20
-133.0430983106308
 30
0.0
 10
-193.5663382069269
 20
-133.0430983106308
 30
0.0
 10
-193.0406812314181
 20
-133.3464820318006
 30
0.0
 10
-193.0406812314181
 20
-133.3464820318006
 30
0.0
 10
-193.7494019682744
 20
-135.1555232029521
 30
0.0
 10
-194.4087501804576
 20
-136.9935031761796
 30
0.0
 10
-195.0162497055879
 20
-138.8589900836722
 30
0.0
 10
-195.1926170625859
 20
-139.3821601308776
 30
0.0
 10
-194.9114542072959
 20
-139.9494381662175
 30
0.0
 10
-194.3882733941672
 20
-140.1261715646109
 30
0.0
 10
-194.3783902764939
 20
-140.1293367460879
 30
0.0
 10
-194.3688947320626
 20
-140.1321681839399
 30
0.0
 10
-194.3593776557846
 20
-140.135333365417
 30
0.0
 10
-194.3593776557846
 20
-140.135333365417
 30
0.0
 10
-194.3783902764939
 20
-140.1293367460879
 30
0.0
 10
-194.3783902764939
 20
-140.1293367460879
 30
0.0
 10
-194.3783902764939
 20
-140.1293367460879
 30
0.0
 10
-192.0377493401216
 20
-140.865585949056
 30
0.0
 10
-192.0377493401216
 20
-140.865585949056
 30
0.0
 10
-192.0377493401216
 20
-140.865585949056
 30
0.0
 10
-192.1206254183886
 20
-140.8391340752833
 30
0.0
 10
-192.1206254183886
 20
-140.8391340752833
 30
0.0
 10
-191.6009758281322
 20
-141.0278607123347
 30
0.0
 10
-191.0266568788943
 20
-140.7594016466466
 30
0.0
 10
-190.8382747513915
 20
-140.2397628223136
 30
0.0
 10
-190.8294682260573
 20
-140.2157871109209
 30
0.0
 10
-190.8216952293687
 20
-140.1914345922096
 30
0.0
 10
-190.8149988250193
 20
-140.1670928394216
 30
0.0
 10
-188.7202085152131
 20
-133.7482878246146
 30
0.0
 10
-185.9861807381188
 20
-127.6702781147626
 30
0.0
 10
-182.6965236547941
 20
-121.9937727518697
 30
0.0
 10
-179.4255777463237
 20
-116.3069536343677
 30
0.0
 10
-176.5251621446791
 20
-111.8966603407721
 30
0.0
 10
-172.0138311385912
 20
-106.8731082315679
 30
0.0
 10
-171.6268392563637
 20
-106.4783433526518
 30
0.0
 10
-171.6328466416161
 20
-105.8447687610676
 30
0.0
 10
-172.0279560300807
 20
-105.4574108374448
 30
0.0
 10
-172.0459351221444
 20
-105.4397977867768
 30
0.0
 10
-172.0649908065471
 20
-105.4228306915119
 30
0.0
 10
-172.0844125323452
 20
-105.4062511694889
 30
0.0
 10
-172.0844125323452
 20
-105.4062511694889
 30
0.0
 10
-172.0205490747874
 20
-105.4651838341334
 30
0.0
 10
-172.0205490747874
 20
-105.4651838341334
 30
0.0
 10
-172.0205490747874
 20
-105.4651838341334
 30
0.0
 10
-173.828190675898
 20
-103.8060689121307
 30
0.0
 10
-173.828190675898
 20
-103.8060689121307
 30
0.0
 10
-173.828190675898
 20
-103.8060689121307
 30
0.0
 10
-173.8133552334646
 20
-103.8198277622252
 30
0.0
 10
-173.8133552334646
 20
-103.8198277622252
 30
0.0
 10
-174.2165821281664
 20
-103.4419869148804
 30
0.0
 10
-174.8494677006535
 20
-103.4628082107191
 30
0.0
 10
-175.226942506603
 20
-103.8660351054208
 30
0.0
 10
-175.2336604427992
 20
-103.8734635925609
 30
0.0
 10
-175.2407013566972
 20
-103.8808490160073
 30
0.0
 10
-175.2473977610467
 20
-103.8886004808492
 30
0.0
 10
-176.5590317396684
 20
-105.3473400366911
 30
0.0
 10
-177.1272995459693
 20
-106.1466048019396
 30
0.0
 10
-178.339800902003
 20
-107.6653105510717
 30
0.0
 10
-178.339800902003
 20
-107.6653105510717
 30
0.0
 10
-178.8227602253414
 20
-107.3862578167664
 30
0.0
 10
-178.8227602253414
 20
-107.3862578167664
 30
0.0
 10
-163.281482322597
 20
-88.01945975981342
 30
0.0
 10
-140.5515939913937
 20
-74.5677054962023
 30
0.0
 10
-115.5096686097419
 20
-70.77745450702399
 30
0.0
 10
-115.5096686097419
 20
-70.77745450702399
 30
0.0
 10
-115.5096686097419
 20
-71.36871901968
 30
0.0
 10
-115.5096686097419
 20
-71.36871901968
 30
0.0
 10
-117.4308907026318
 20
-71.65939895124795
 30
0.0
 10
-118.1718665723424
 20
-71.78703440931235
 30
0.0
 10
-120.0909570124008
 20
-72.19379252688645
 30
0.0
 10
-120.6324829589885
 20
-72.30278673530137
 30
0.0
 10
-120.9810404947087
 20
-72.84007090807253
 30
0.0
 10
-120.8720247544473
 20
-73.38159685466024
 30
0.0
 10
-120.8702591430111
 20
-73.39182448188208
 30
0.0
 10
-120.8720247544473
 20
-73.38159685466024
 30
0.0
 10
-120.8720247544473
 20
-73.38159685466024
 30
0.0
 10
-120.8720247544473
 20
-73.38159685466024
 30
0.0
 10
-120.8720247544473
 20
-73.38159685466024
 30
0.0
 10
-120.8720247544473
 20
-73.38159685466024
 30
0.0
 10
-120.8720247544473
 20
-73.38159685466024
 30
0.0
 10
-120.358016508048
 20
-75.69159797306061
 30
0.0
 10
-120.358016508048
 20
-75.69159797306061
 30
0.0
 10
-120.358016508048
 20
-75.69159797306061
 30
0.0
 10
-120.358016508048
 20
-75.69159797306061
 30
0.0
 10
-120.358016508048
 20
-75.69159797306061
 30
0.0
 10
-120.2617260892353
 20
-76.23592305973008
 30
0.0
 10
-119.7420549671321
 20
-76.59927297419003
 30
0.0
 10
-119.1977514123094
 20
-76.5026165139823
 30
0.0
 10
-119.1726883426543
 20
-76.49837474016577
 30
0.0
 10
-119.1476468048458
 20
-76.49273339630868
 30
0.0
 10
-119.1232942861345
 20
-76.48638150150775
 30
0.0
 10
-112.5171729702404
 20
-75.09116089367545
 30
0.0
 10
-107.0662563397173
 20
-74.64005250139255
 30
0.0
 10
-100.5056533479221
 20
-74.65060310631613
 30
0.0
  0
POLYLINE
  5
50
330
41
100
AcDbEntity
  8
Layer 1
 62
    18
420
    65793
370
    18
100
AcDb2dPolyline
 66
     1
 10
0.0
 20
0.0
 30
0.0
  0
VERTEX
  5
51
330
50
100
AcDbEntity
  8
Layer 1
 62
    18
420
    65793
370
    18
100
AcDbVertex
100
AcDb2dVertex
 10
24.10429009558903
 20
21.11514919586006
 30
0.0
  0
VERTEX
  5
52
330
50
100
AcDbEntity
  8
Layer 1
 62
    18
420
    65793
370
    18
100
AcDbVertex
100
AcDb2dVertex
 10
19.10433689045881
 20
21.11514919586006
 30
0.0
  0
VERTEX
  5
53
330
50
100
AcDbEntity
  8
Layer 1
 62
    18
420
    65793
370
    18
100
AcDbVertex
100
AcDb2dVertex
 10
19.10433689045881
 20
46.11545351768073
 30
0.0
  0
VERTEX
  5
54
330
50
100
AcDbEntity
  8
Layer 1
 62
    18
420
    65793
370
    18
100
AcDbVertex
100
AcDb2dVertex
 10
24.10429009558903
 20
46.11545351768073
 30
0.0
  0
VERTEX
  5
55
330
50
100
AcDbEntity
  8
Layer 1
 62
    18
420
    65793
370
    18
100
AcDbVertex
100
AcDb2dVertex
 10
24.10429009558903
 20
21.11514919586006
 30
0.0
  0
VERTEX
  5
56
330
50
100
AcDbEntity
  8
Layer 1
 62
    18
420
    65793
370
    18
100
AcDbVertex
100
AcDb2dVertex
 10
24.10429009558903
 20
21.11514919586006
 30
0.0
  0
SEQEND
  5
57
330
50
100
AcDbEntity
  8
Layer 1
 62
    18
420
    65793
370
    18
  0
POLYLINE
  5
58
330
41
100
AcDbEntity
  8
Layer 1
 62
    18
420
    65793
370
    18
100
AcDb2dPolyline
 66
     1
 10
0.0
 20
0.0
 30
0.0
  0
VERTEX
  5
59
330
58
100
AcDbEntity
  8
Layer 1
 62
    18
420
    65793
370
    18
100
AcDbVertex
100
AcDb2dVertex
 10
34.10411037846234
 20
46.11545351768073
 30
0.0
  0
VERTEX
  5
5A
330
58
100
AcDbEntity
  8
Layer 1
 62
    18
420
    65793
370
    18
100
AcDbVertex
100
AcDb2dVertex
 10
39.10436502944752
 20
46.11545351768073
 30
0.0
  0
VERTEX
  5
5B
330
58
100
AcDbEntity
  8
Layer 1
 62
    18
420
    65793
370
    18
100
AcDbVertex
100
AcDb2dVertex
 10
39.10436502944752
 20
21.11514919586006
 30
0.0
  0
VERTEX
  5
5C
330
58
100
AcDbEntity
  8
Layer 1
 62
    18
420
    65793
370
    18
100
AcDbVertex
100
AcDb2dVertex
 10
34.10411037846234
 20
21.11514919586006
 30
0.0
  0
VERTEX
  5
5D
330
58
100
AcDbEntity
  8
Layer 1
 62
    18
420
    65793
370
    18
100
AcDbVertex
100
AcDb2dVertex
 10
34.10411037846234
 20
46.11545351768073
 30
0.0
  0
VERTEX
  5
5E
330
58
100
AcDbEntity
  8
Layer 1
 62
    18
420
    65793
370
    18
100
AcDbVertex
100
AcDb2dVertex
 10
34.10411037846234
 20
46.11545351768073
 30
0.0
  0
SEQEND
  5
5F
330
58
100
AcDbEntity
  8
Layer 1
 62
    18
420
    65793
370
    18
  0
POLYLINE
  5
60
330
41
100
AcDbEntity
  8
Layer 1
 62
    18
420
    65793
370
    18
100
AcDb2dPolyline
 66
     1
 10
0.0
 20
0.0
 30
0.0
  0
VERTEX
  5
61
330
60
100
AcDbEntity
  8
Layer 1
 62
    18
420
    65793
370
    18
100
AcDbVertex
100
AcDb2dVertex
 10
46.60444556007033
 20
56.31485600369436
 30
0.0
  0
VERTEX
  5
62
330
60
100
AcDbEntity
  8
Layer 1
 62
    18
420
    65793
370
    18
100
AcDbVertex
100
AcDb2dVertex
 10
41.60451388678689
 20
56.31485600369436
 30
0.0
  0
VERTEX
  5
63
330
60
100
AcDbEntity
  8
Layer 1
 62
    18
420
    65793
370
    18
100
AcDbVertex
100
AcDb2dVertex
 10
41.60451388678689
 20
56.6151571554638
 30
0.0
  0
VERTEX
  5
64
330
60
100
AcDbEntity
  8
Layer 1
 62
    18
420
    65793
370
    18
100
AcDbVertex
100
AcDb2dVertex
 10
81.60422565521579
 20
56.6151571554638
 30
0.0
  0
VERTEX
  5
65
330
60
100
AcDbEntity
  8
Layer 1
 62
    18
420
    65793
370
    18
100
AcDbVertex
100
AcDb2dVertex
 10
81.60422565521579
 20
56.31485600369436
 30
0.0
  0
VERTEX
  5
66
330
60
100
AcDbEntity
  8
Layer 1
 62
    18
420
    65793
370
    18
100
AcDbVertex
100
AcDb2dVertex
 10
76.60431551377913
 20
56.31485600369436
 30
0.0
  0
VERTEX
  5
67
330
60
100
AcDbEntity
  8
Layer 1
 62
    18
420
    65793
370
    18
100
AcDbVertex
100
AcDb2dVertex
 10
76.60431551377913
 20
56.31520051324289
 30
0.0
  0
VERTEX
  5
68
330
60
100
AcDbEntity
  8
Layer 1
 62
    18
420
    65793
370
    18
100
AcDbVertex
100
AcDb2dVertex
 10
46.60444556007033
 20
56.31520051324289
 30
0.0
  0
VERTEX
  5
69
330
60
100
AcDbEntity
  8
Layer 1
 62
    18
420
    65793
370
    18
100
AcDbVertex
100
AcDb2dVertex
 10
46.60444556007033
 20
56.31485600369436
 30
0.0
  0
VERTEX
  5
6A
330
60
100
AcDbEntity
  8
Layer 1
 62
    18
420
    65793
370
    18
100
AcDbVertex
100
AcDb2dVertex
 10
46.60444556007033
 20
56.31485600369436
 30
0.0
  0
SEQEND
  5
6B
330
60
100
AcDbEntity
  8
Layer 1
 62
    18
420
    65793
370
    18
  0
SPLINE
  5
6C
330
41
100
AcDbEntity
  8
Layer 1
 62
    18
420
    65793
370
    18
100
AcDbSpline
210
0.0
220
0.0
230
1.0
 70
     8
 71
     3
 72
    50
 73
    46
 74
     0
 42
0.0000000001
 43
0.0000000001
 12
1.0
 22
0.0
 32
0.0
 13
1.0
 23
0.0
 33
0.0
 40
0.0
 40
0.0
 40
0.0
 40
0.0
 40
1.0
 40
1.0
 40
1.0
 40
2.0
 40
2.0
 40
2.0
 40
3.0
 40
3.0
 40
3.0
 40
4.0
 40
4.0
 40
4.0
 40
5.0
 40
5.0
 40
5.0
 40
6.0
 40
6.0
 40
6.0
 40
7.0
 40
7.0
 40
7.0
 40
8.0
 40
8.0
 40
8.0
 40
9.0
 40
9.0
 40
9.0
 40
10.0
 40
10.0
 40
10.0
 40
11.0
 40
11.0
 40
11.0
 40
12.0
 40
12.0
 40
12.0
 40
13.0
 40
13.0
 40
13.0
 40
14.0
 40
14.0
 40
14.0
 40
15.0
 40
15.0
 40
15.0
 40
15.0
 10
166.104709507246
 20
11.11496287159145
 30
0.0
 10
166.104709507246
 20
11.11496287159145
 30
0.0
 10
312.7145805507802
 20
11.11496287159145
 30
0.0
 10
312.7145805507802
 20
11.11496287159145
 30
0.0
 10
318.2373269957971
 20
11.11496287159145
 30
0.0
 10
322.7144438973471
 20
15.59242428268996
 30
0.0
 10
322.7144438973471
 20
21.11514919586006
 30
0.0
 10
322.7144438973471
 20
21.11514919586006
 30
0.0
 10
322.7144438973471
 20
46.11545351768073
 30
0.0
 10
322.7144438973471
 20
46.11545351768073
 30
0.0
 10
322.7144438973471
 20
51.63785545314909
 30
0.0
 10
318.2373269957971
 20
56.11527380055404
 30
0.0
 10
312.7145805507802
 20
56.11527380055404
 30
0.0
 10
312.7145805507802
 20
56.11527380055404
 30
0.0
 10
301.1043073196333
 20
56.11527380055404
 30
0.0
 10
301.1043073196333
 20
56.11527380055404
 30
0.0
 10
301.1043073196333
 20
56.11527380055404
 30
0.0
 10
286.303875669145
 20
63.18176753251138
 30
0.0
 10
286.303875669145
 20
63.18176753251138
 30
0.0
 10
283.2632774575571
 20
64.93721593702044
 30
0.0
 10
276.9358858982666
 20
66.11518021081449
 30
0.0
 10
273.425032152942
 20
66.11518021081449
 30
0.0
 10
273.425032152942
 20
66.11518021081449
 30
0.0
 10
58.78410694754191
 20
66.11518021081449
 30
0.0
 10
58.78410694754191
 20
66.11518021081449
 30
0.0
 10
55.27323167037058
 20
66.11518021081449
 30
0.0
 10
48.94581857923325
 20
64.93721593702044
 30
0.0
 10
45.90524189949209
 20
63.18176753251138
 30
0.0
 10
45.90524189949209
 20
63.18176753251138
 30
0.0
 10
31.10481024900383
 20
56.11527380055404
 30
0.0
 10
31.10481024900383
 20
56.11527380055404
 30
0.0
 10
31.10481024900383
 20
56.11527380055404
 30
0.0
 10
19.49453701785692
 20
56.11527380055404
 30
0.0
 10
19.49453701785692
 20
56.11527380055404
 30
0.0
 10
13.97181210468682
 20
56.11527380055404
 30
0.0
 10
9.494673671290045
 20
51.63785545314909
 30
0.0
 10
9.494673671290045
 20
46.11545351768073
 30
0.0
 10
9.494673671290045
 20
46.11545351768073
 30
0.0
 10
9.494673671290045
 20
21.11514919586006
 30
0.0
 10
9.494673671290045
 20
21.11514919586006
 30
0.0
 10
9.494673671290045
 20
15.59242428268996
 30
0.0
 10
13.97181210468682
 20
11.11496287159145
 30
0.0
 10
19.49453701785692
 20
11.11496287159145
 30
0.0
 10
19.49453701785692
 20
11.11496287159145
 30
0.0
 10
166.1043649976975
 20
11.11496287159145
 30
0.0
 10
166.1043649976975
 20
11.11496287159145
 30
0.0
  0
POLYLINE
  5
6D
330
41
100
AcDbEntity
  8
Layer 1
 62
    18
420
    65793
370
    18
100
AcDb2dPolyline
 66
     1
 10
0.0
 20
0.0
 30
0.0
  0
VERTEX
  5
6E
330
6D
100
AcDbEntity
  8
Layer 1
 62
    18
420
    65793
370
    18
100
AcDbVertex
100
AcDb2dVertex
 10
281.5152790720349
 20
-16.19901481670748
 30
0.0
  0
VERTEX
  5
6F
330
6D
100
AcDbEntity
  8
Layer 1
 62
    18
420
    65793
370
    18
100
AcDbVertex
100
AcDb2dVertex
 10
281.5152790720349
 20
-30.3960476906762
 30
0.0
  0
SEQEND
  5
70
330
6D
100
AcDbEntity
  8
Layer 1
 62
    18
420
    65793
370
    18
  0
POLYLINE
  5
71
330
41
100
AcDbEntity
  8
Layer 1
 62
    18
420
    65793
370
    18
100
AcDb2dPolyline
 66
     1
 10
0.0
 20
0.0
 30
0.0
  0
VERTEX
  5
72
330
71
100
AcDbEntity
  8
Layer 1
 62
    18
420
    65793
370
    18
100
AcDbVertex
100
AcDb2dVertex
 10
129.5174509443443
 20
-16.19901481670748
 30
0.0
  0
VERTEX
  5
73
330
71
100
AcDbEntity
  8
Layer 1
 62
    18
420
    65793
370
    18
100
AcDbVertex
100
AcDb2dVertex
 10
129.5174509443443
 20
-29.29572725638097
 30
0.0
  0
SEQEND
  5
74
330
71
100
AcDbEntity
  8
Layer 1
 62
    18
420
    65793
370
    18
  0
POLYLINE
  5
75
330
41
100
AcDbEntity
  8
Layer 1
 62
    18
420
    65793
370
    18
100
AcDb2dPolyline
 66
     1
 10
0.0
 20
0.0
 30
0.0
  0
VERTEX
  5
76
330
75
100
AcDbEntity
  8
Layer 1
 62
    18
420
    65793
370
    18
100
AcDbVertex
100
AcDb2dVertex
 10
85.97056120506821
 20
-36.61304547151128
 30
0.0
  0
VERTEX
  5
77
330
75
100
AcDbEntity
  8
Layer 1
 62
    18
420
    65793
370
    18
100
AcDbVertex
100
AcDb2dVertex
 10
85.97056120506821
 20
-61.61300528378342
 30
0.0
  0
VERTEX
  5
78
330
75
100
AcDbEntity
  8
Layer 1
 62
    18
420
    65793
370
    18
100
AcDbVertex
100
AcDb2dVertex
 10
90.9694162860125
 20
-61.61300528378342
 30
0.0
  0
VERTEX
  5
79
330
75
100
AcDbEntity
  8
Layer 1
 62
    18
420
    65793
370
    18
100
AcDbVertex
100
AcDb2dVertex
 10
90.9694162860125
 20
-36.61304547151128
 30
0.0
  0
VERTEX
  5
7A
330
75
100
AcDbEntity
  8
Layer 1
 62
    18
420
    65793
370
    18
100
AcDbVertex
100
AcDb2dVertex
 10
85.97056120506821
 20
-36.61304547151128
 30
0.0
  0
VERTEX
  5
7B
330
75
100
AcDbEntity
  8
Layer 1
 62
    18
420
    65793
370
    18
100
AcDbVertex
100
AcDb2dVertex
 10
85.97056120506821
 20
-36.61304547151128
 30
0.0
  0
SEQEND
  5
7C
330
75
100
AcDbEntity
  8
Layer 1
 62
    18
420
    65793
370
    18
  0
POLYLINE
  5
7D
330
41
100
AcDbEntity
  8
Layer 1
 62
    18
420
    65793
370
    18
100
AcDb2dPolyline
 66
     1
 10
0.0
 20
0.0
 30
0.0
  0
VERTEX
  5
7E
330
7D
100
AcDbEntity
  8
Layer 1
 62
    18
420
    65793
370
    18
100
AcDbVertex
100
AcDb2dVertex
 10
70.97046473936294
 20
-36.61304547151128
 30
0.0
  0
VERTEX
  5
7F
330
7D
100
AcDbEntity
  8
Layer 1
 62
    18
420
    65793
370
    18
100
AcDbVertex
100
AcDb2dVertex
 10
70.97046473936294
 20
-61.61300528378342
 30
0.0
  0
VERTEX
  5
80
330
7D
100
AcDbEntity
  8
Layer 1
 62
    18
420
    65793
370
    18
100
AcDbVertex
100
AcDb2dVertex
 10
75.96929828846045
 20
-61.61300528378342
 30
0.0
  0
VERTEX
  5
81
330
7D
100
AcDbEntity
  8
Layer 1
 62
    18
420
    65793
370
    18
100
AcDbVertex
100
AcDb2dVertex
 10
75.96929828846045
 20
-36.61304547151128
 30
0.0
  0
VERTEX
  5
82
330
7D
100
AcDbEntity
  8
Layer 1
 62
    18
420
    65793
370
    18
100
AcDbVertex
100
AcDb2dVertex
 10
70.97046473936294
 20
-36.61304547151128
 30
0.0
  0
VERTEX
  5
83
330
7D
100
AcDbEntity
  8
Layer 1
 62
    18
420
    65793
370
    18
100
AcDbVertex
100
AcDb2dVertex
 10
70.97046473936294
 20
-36.61304547151128
 30
0.0
  0
SEQEND
  5
84
330
7D
100
AcDbEntity
  8
Layer 1
 62
    18
420
    65793
370
    18
  0
POLYLINE
  5
85
330
41
100
AcDbEntity
  8
Layer 1
 62
    18
420
    65793
370
    18
100
AcDb2dPolyline
 66
     1
 10
0.0
 20
0.0
 30
0.0
  0
VERTEX
  5
86
330
85
100
AcDbEntity
  8
Layer 1
 62
    18
420
    65793
370
    18
100
AcDbVertex
100
AcDb2dVertex
 10
477.0600184708484
 20
-61.61300528378342
 30
0.0
  0
VERTEX
  5
87
330
85
100
AcDbEntity
  8
Layer 1
 62
    18
420
    65793
370
    18
100
AcDbVertex
100
AcDb2dVertex
 10
472.0610987943656
 20
-61.61300528378342
 30
0.0
  0
VERTEX
  5
88
330
85
100
AcDbEntity
  8
Layer 1
 62
    18
420
    65793
370
    18
100
AcDbVertex
100
AcDb2dVertex
 10
472.0610987943656
 20
-36.61304547151128
 30
0.0
  0
VERTEX
  5
89
330
85
100
AcDbEntity
  8
Layer 1
 62
    18
420
    65793
370
    18
100
AcDbVertex
100
AcDb2dVertex
 10
477.0600184708484
 20
-36.61304547151128
 30
0.0
  0
VERTEX
  5
8A
330
85
100
AcDbEntity
  8
Layer 1
 62
    18
420
    65793
370
    18
100
AcDbVertex
100
AcDb2dVertex
 10
477.0600184708484
 20
-61.61300528378342
 30
0.0
  0
VERTEX
  5
8B
330
85
100
AcDbEntity
  8
Layer 1
 62
    18
420
    65793
370
    18
100
AcDbVertex
100
AcDb2dVertex
 10
477.0600184708484
 20
-61.61300528378342
 30
0.0
  0
SEQEND
  5
8C
330
85
100
AcDbEntity
  8
Layer 1
 62
    18
420
    65793
370
    18
  0
POLYLINE
  5
8D
330
41
100
AcDbEntity
  8
Layer 1
 62
    18
420
    65793
370
    18
100
AcDb2dPolyline
 66
     1
 10
0.0
 20
0.0
 30
0.0
  0
VERTEX
  5
8E
330
8D
100
AcDbEntity
  8
Layer 1
 62
    18
420
    65793
370
    18
100
AcDbVertex
100
AcDb2dVertex
 10
487.0612167919177
 20
-61.61300528378342
 30
0.0
  0
VERTEX
  5
8F
330
8D
100
AcDbEntity
  8
Layer 1
 62
    18
420
    65793
370
    18
100
AcDbVertex
100
AcDb2dVertex
 10
487.0612167919177
 20
-36.61304547151128
 30
0.0
  0
VERTEX
  5
90
330
8D
100
AcDbEntity
  8
Layer 1
 62
    18
420
    65793
370
    18
100
AcDbVertex
100
AcDb2dVertex
 10
492.0601364684005
 20
-36.61304547151128
 30
0.0
  0
VERTEX
  5
91
330
8D
100
AcDbEntity
  8
Layer 1
 62
    18
420
    65793
370
    18
100
AcDbVertex
100
AcDb2dVertex
 10
492.0601364684005
 20
-61.61300528378342
 30
0.0
  0
VERTEX
  5
92
330
8D
100
AcDbEntity
  8
Layer 1
 62
    18
420
    65793
370
    18
100
AcDbVertex
100
AcDb2dVertex
 10
487.0612167919177
 20
-61.61300528378342
 30
0.0
  0
VERTEX
  5
93
330
8D
100
AcDbEntity
  8
Layer 1
 62
    18
420
    65793
370
    18
100
AcDbVertex
100
AcDb2dVertex
 10
487.0612167919177
 20
-61.61300528378342
 30
0.0
  0
SEQEND
  5
94
330
8D
100
AcDbEntity
  8
Layer 1
 62
    18
420
    65793
370
    18
  0
POLYLINE
  5
95
330
41
100
AcDbEntity
  8
Layer 1
 62
    18
420
    65793
370
    18
100
AcDb2dPolyline
 66
     1
 10
0.0
 20
0.0
 30
0.0
  0
VERTEX
  5
96
330
95
100
AcDbEntity
  8
Layer 1
 62
    18
420
    65793
370
    18
100
AcDbVertex
100
AcDb2dVertex
 10
433.5131071997262
 20
-16.19901481670748
 30
0.0
  0
VERTEX
  5
97
330
95
100
AcDbEntity
  8
Layer 1
 62
    18
420
    65793
370
    18
100
AcDbVertex
100
AcDb2dVertex
 10
433.5131071997262
 20
-29.29572725638097
 30
0.0
  0
SEQEND
  5
98
330
95
100
AcDbEntity
  8
Layer 1
 62
    18
420
    65793
370
    18
  0
SPLINE
  5
99
330
41
100
AcDbEntity
  8
Layer 1
 62
    18
420
    65793
370
    18
100
AcDbSpline
210
0.0
220
0.0
230
1.0
 70
    11
 71
     3
 72
   173
 73
   169
 74
     0
 42
0.0000000001
 43
0.0000000001
 12
1.0
 22
0.0
 32
0.0
 13
1.0
 23
0.0
 33
0.0
 40
0.0
 40
0.0
 40
0.0
 40
0.0
 40
1.0
 40
1.0
 40
1.0
 40
2.0
 40
2.0
 40
2.0
 40
3.0
 40
3.0
 40
3.0
 40
4.0
 40
4.0
 40
4.0
 40
5.0
 40
5.0
 40
5.0
 40
6.0
 40
6.0
 40
6.0
 40
7.0
 40
7.0
 40
7.0
 40
8.0
 40
8.0
 40
8.0
 40
9.0
 40
9.0
 40
9.0
 40
10.0
 40
10.0
 40
10.0
 40
11.0
 40
11.0
 40
11.0
 40
12.0
 40
12.0
 40
12.0
 40
13.0
 40
13.0
 40
13.0
 40
14.0
 40
14.0
 40
14.0
 40
15.0
 40
15.0
 40
15.0
 40
16.0
 40
16.0
 40
16.0
 40
17.0
 40
17.0
 40
17.0
 40
18.0
 40
18.0
 40
18.0
 40
19.0
 40
19.0
 40
19.0
 40
20.0
 40
20.0
 40
20.0
 40
21.0
 40
21.0
 40
21.0
 40
22.0
 40
22.0
 40
22.0
 40
23.0
 40
23.0
 40
23.0
 40
24.0
 40
24.0
 40
24.0
 40
25.0
 40
25.0
 40
25.0
 40
26.0
 40
26.0
 40
26.0
 40
27.0
 40
27.0
 40
27.0
 40
28.0
 40
28.0
 40
28.0
 40
29.0
 40
29.0
 40
29.0
 40
30.0
 40
30.0
 40
30.0
 40
31.0
 40
31.0
 40
31.0
 40
32.0
 40
32.0
 40
32.0
 40
33.0
 40
33.0
 40
33.0
 40
34.0
 40
34.0
 40
34.0
 40
35.0
 40
35.0
 40
35.0
 40
36.0
 40
36.0
 40
36.0
 40
37.0
 40
37.0
 40
37.0
 40
38.0
 40
38.0
 40
38.0
 40
39.0
 40
39.0
 40
39.0
 40
40.0
 40
40.0
 40
40.0
 40
41.0
 40
41.0
 40
41.0
 40
42.0
 40
42.0
 40
42.0
 40
43.0
 40
43.0
 40
43.0
 40
44.0
 40
44.0
 40
44.0
 40
45.0
 40
45.0
 40
45.0
 40
46.0
 40
46.0
 40
46.0
 40
47.0
 40
47.0
 40
47.0
 40
48.0
 40
48.0
 40
48.0
 40
49.0
 40
49.0
 40
49.0
 40
50.0
 40
50.0
 40
50.0
 40
51.0
 40
51.0
 40
51.0
 40
52.0
 40
52.0
 40
52.0
 40
53.0
 40
53.0
 40
53.0
 40
54.0
 40
54.0
 40
54.0
 40
55.0
 40
55.0
 40
55.0
 40
56.0
 40
56.0
 40
56.0
 40
56.0
 10
471.5143621408565
 20
-71.61353611760056
 30
0.0
 10
471.5143621408565
 20
-71.61353611760056
 30
0.0
 10
487.5163139055192
 20
-71.61353611760056
 30
0.0
 10
487.5163139055192
 20
-71.61353611760056
 30
0.0
 10
492.8150430166077
 20
-71.61353611760056
 30
0.0
 10
497.9091334558724
 20
-69.50393189720782
 30
0.0
 10
501.659206018952
 20
-65.75603405065131
 30
0.0
 10
505.405661231776
 20
-62.00740412130418
 30
0.0
 10
507.5152654521688
 20
-56.91400270113656
 30
0.0
 10
507.5152654521688
 20
-51.61387402000716
 30
0.0
 10
507.5152654521688
 20
-49.96709684621096
 30
0.0
 10
507.5152654521688
 20
-48.26035347912462
 30
0.0
 10
507.5152654521688
 20
-46.6135978371752
 30
0.0
 10
507.5152654521688
 20
-41.31346915604581
 30
0.0
 10
505.405661231776
 20
-36.22006773587818
 30
0.0
 10
501.659206018952
 20
-32.47143780653105
 30
0.0
 10
497.9091334558724
 20
-28.72317391857923
 30
0.0
 10
492.8150430166077
 20
-26.61356969818649
 30
0.0
 10
487.5163139055192
 20
-26.61356969818649
 30
0.0
 10
480.1891125727156
 20
-26.61356969818649
 30
0.0
 10
471.5143621408565
 20
-26.61356969818649
 30
0.0
 10
471.5143621408565
 20
-26.61356969818649
 30
0.0
 10
471.5143621408565
 20
-26.61356969818649
 30
0.0
 10
466.5225049101147
 20
-26.59595664751815
 30
0.0
 10
466.5225049101147
 20
-26.59595664751815
 30
0.0
 10
466.5225049101147
 20
-26.59595664751815
 30
0.0
 10
448.5132682609712
 20
-26.59595664751815
 30
0.0
 10
448.5132682609712
 20
-26.59595664751815
 30
0.0
 10
448.5132682609712
 20
-26.59595664751815
 30
0.0
 10
448.5132682609712
 20
-26.19846905818548
 30
0.0
 10
448.5132682609712
 20
-26.19846905818548
 30
0.0
 10
448.5132682609712
 20
-26.19846905818548
 30
0.0
 10
453.6144211459806
 20
-26.19846905818548
 30
0.0
 10
456.5283259710972
 20
-26.19846905818548
 30
0.0
 10
457.0539183510688
 20
-26.19846905818548
 30
0.0
 10
457.5620268714464
 20
-25.98963167623899
 30
0.0
 10
457.9323746361108
 20
-25.61745370459809
 30
0.0
 10
458.3027654644719
 20
-25.24562024250572
 30
0.0
 10
458.5144665820405
 20
-24.74078456283592
 30
0.0
 10
458.5144665820405
 20
-24.21409405868157
 30
0.0
 10
458.5144665820405
 20
-24.20421094100826
 30
0.0
 10
458.5144665820405
 20
-24.19856959715116
 30
0.0
 10
458.5144665820405
 20
-24.19856959715116
 30
0.0
 10
458.5144665820405
 20
-19.78075140164104
 30
0.0
 10
454.9302753665718
 20
-16.19901481670748
 30
0.0
 10
450.5134476360143
 20
-16.19901481670748
 30
0.0
 10
450.5134476360143
 20
-16.19901481670748
 30
0.0
 10
416.5092355405638
 20
-16.19901481670748
 30
0.0
 10
416.5092355405638
 20
-16.19901481670748
 30
0.0
 10
412.0889196508288
 20
-16.19901481670748
 30
0.0
 10
408.5117478174125
 20
-19.78038536024573
 30
0.0
 10
408.5117478174125
 20
-24.19856959715116
 30
0.0
 10
408.5117478174125
 20
-25.30311027341583
 30
0.0
 10
409.4042859302556
 20
-26.19846905818548
 30
0.0
 10
410.5084820969704
 20
-26.19846905818548
 30
0.0
 10
413.4294493678324
 20
-26.19846905818548
 30
0.0
 10
418.5095010429966
 20
-26.19846905818548
 30
0.0
 10
418.5095010429966
 20
-26.19846905818548
 30
0.0
 10
418.5095010429966
 20
-26.19846905818548
 30
0.0
 10
418.5095010429966
 20
-26.59595664751815
 30
0.0
 10
418.5095010429966
 20
-26.59595664751815
 30
0.0
 10
418.5095010429966
 20
-26.59595664751815
 30
0.0
 10
296.515397069587
 20
-26.59595664751815
 30
0.0
 10
296.515397069587
 20
-26.59595664751815
 30
0.0
 10
296.515397069587
 20
-26.59595664751815
 30
0.0
 10
296.515397069587
 20
-26.19846905818548
 30
0.0
 10
296.515397069587
 20
-26.19846905818548
 30
0.0
 10
296.515397069587
 20
-26.19846905818548
 30
0.0
 10
301.5988938402345
 20
-26.19846905818548
 30
0.0
 10
304.5163729519183
 20
-26.19846905818548
 30
0.0
 10
305.6205691186345
 20
-26.19846905818548
 30
0.0
 10
306.5166384543479
 20
-25.30311027341583
 30
0.0
 10
306.5166384543479
 20
-24.19856959715116
 30
0.0
 10
306.5166384543479
 20
-19.78038536024573
 30
0.0
 10
302.9359353980599
 20
-16.19901481670748
 30
0.0
 10
298.5156625720166
 20
-16.19901481670748
 30
0.0
 10
298.5156625720166
 20
-16.19901481670748
 30
0.0
 10
264.5149386357468
 20
-16.19901481670748
 30
0.0
 10
264.5149386357468
 20
-16.19901481670748
 30
0.0
 10
260.0946227460099
 20
-16.19901481670748
 30
0.0
 10
256.5139196897219
 20
-19.78038536024573
 30
0.0
 10
256.5139196897219
 20
-24.19856959715116
 30
0.0
 10
256.5139196897219
 20
-25.30311027341583
 30
0.0
 10
257.4099459617418
 20
-26.19846905818548
 30
0.0
 10
258.5141851921515
 20
-26.19846905818548
 30
0.0
 10
261.4316643038353
 20
-26.19846905818548
 30
0.0
 10
266.5151610744829
 20
-26.19846905818548
 30
0.0
 10
266.5151610744829
 20
-26.19846905818548
 30
0.0
 10
266.5151610744829
 20
-26.19846905818548
 30
0.0
 10
266.5151610744829
 20
-26.59595664751815
 30
0.0
 10
266.5151610744829
 20
-26.59595664751815
 30
0.0
 10
266.5151610744829
 20
-26.59595664751815
 30
0.0
 10
144.5210571010751
 20
-26.59595664751815
 30
0.0
 10
144.5210571010751
 20
-26.59595664751815
 30
0.0
 10
144.5210571010751
 20
-26.59595664751815
 30
0.0
 10
144.5210571010751
 20
-26.19846905818548
 30
0.0
 10
144.5210571010751
 20
-26.19846905818548
 30
0.0
 10
144.5210571010751
 20
-26.19846905818548
 30
0.0
 10
149.6045969354162
 20
-26.19846905818548
 30
0.0
 10
152.5220760471
 20
-26.19846905818548
 30
0.0
 10
153.6263152775097
 20
-26.19846905818548
 30
0.0
 10
154.5223846132232
 20
-25.30311027341583
 30
0.0
 10
154.5223846132232
 20
-24.19856959715116
 30
0.0
 10
154.5223846132232
 20
-19.78038536024573
 30
0.0
 10
150.9416384932417
 20
-16.19901481670748
 30
0.0
 10
146.5213226035047
 20
-16.19901481670748
 30
0.0
 10
146.5213226035047
 20
-16.19901481670748
 30
0.0
 10
112.5170674443626
 20
-16.19901481670748
 30
0.0
 10
112.5170674443626
 20
-16.19901481670748
 30
0.0
 10
108.1003043093448
 20
-16.19901481670748
 30
0.0
 10
104.5196012530568
 20
-19.78075140164104
 30
0.0
 10
104.5196012530568
 20
-24.19856959715116
 30
0.0
 10
104.5196012530568
 20
-24.19856959715116
 30
0.0
 10
104.5196012530568
 20
-24.20386643145974
 30
0.0
 10
104.5196012530568
 20
-24.21409405868157
 30
0.0
 10
104.5196012530568
 20
-24.7404400532874
 30
0.0
 10
104.7277496159063
 20
-25.24525420111041
 30
0.0
 10
105.0981835079577
 20
-25.61745370459809
 30
0.0
 10
105.4721055591881
 20
-25.98926563484368
 30
0.0
 10
105.9765967293093
 20
-26.19846905818548
 30
0.0
 10
106.5022321729713
 20
-26.19846905818548
 30
0.0
 10
109.416158529936
 20
-26.19846905818548
 30
0.0
 10
114.5173329467922
 20
-26.19846905818548
 30
0.0
 10
114.5173329467922
 20
-26.19846905818548
 30
0.0
 10
114.5173329467922
 20
-26.19846905818548
 30
0.0
 10
114.5173329467922
 20
-26.59595664751815
 30
0.0
 10
114.5173329467922
 20
-26.59595664751815
 30
0.0
 10
114.5173329467922
 20
-26.59595664751815
 30
0.0
 10
96.50805323395511
 20
-26.59595664751815
 30
0.0
 10
96.50805323395511
 20
-26.59595664751815
 30
0.0
 10
96.50805323395511
 20
-26.59595664751815
 30
0.0
 10
91.51621753506201
 20
-26.61356969818649
 30
0.0
 10
91.51621753506201
 20
-26.61356969818649
 30
0.0
 10
91.51621753506201
 20
-26.61356969818649
 30
0.0
 10
82.84493373053495
 20
-26.61356969818649
 30
0.0
 10
75.51775392957812
 20
-26.61356969818649
 30
0.0
 10
70.215515127464
 20
-26.61356969818649
 30
0.0
 10
65.12138162450577
 20
-28.72317391857923
 30
0.0
 10
61.37488334799014
 20
-32.47109329698252
 30
0.0
 10
57.62485384860212
 20
-36.22006773587818
 30
0.0
 10
55.51524962820938
 20
-41.31346915604581
 30
0.0
 10
55.51524962820938
 20
-46.61325332762667
 30
0.0
 10
55.51524962820938
 20
-48.2600089695761
 30
0.0
 10
55.51524962820938
 20
-49.96709684621096
 30
0.0
 10
55.51524962820938
 20
-51.61387402000716
 30
0.0
 10
55.51524962820938
 20
-56.91365819158803
 30
0.0
 10
57.62485384860212
 20
-62.00740412130418
 30
0.0
 10
61.37488334799014
 20
-65.755668009256
 30
0.0
 10
65.12138162450577
 20
-69.50393189720782
 30
0.0
 10
70.215515127464
 20
-71.61353611760056
 30
0.0
 10
75.51775392957812
 20
-71.61353611760056
 30
0.0
 10
75.51775392957812
 20
-71.61353611760056
 30
0.0
 10
91.51621753506201
 20
-71.61353611760056
 30
0.0
 10
91.51621753506201
 20
-71.61353611760056
 30
0.0
 10
91.51621753506201
 20
-71.61353611760056
 30
0.0
 10
91.51621753506201
 20
-206.3954684908604
 30
0.0
 10
91.51621753506201
 20
-206.3954684908604
 30
0.0
 10
91.51621753506201
 20
-245.0553287954586
 30
0.0
 10
122.8570478427107
 20
-276.39540548847
 30
0.0
 10
161.514378155312
 20
-276.39540548847
 30
0.0
 10
161.514378155312
 20
-276.39540548847
 30
0.0
 10
401.5162230524533
 20
-276.39540548847
 30
0.0
 10
401.5162230524533
 20
-276.39540548847
 30
0.0
 10
440.1735533650526
 20
-276.39540548847
 30
0.0
 10
471.5143621408565
 20
-245.0553287954586
 30
0.0
 10
471.5143621408565
 20
-206.3954684908604
 30
0.0
 10
471.5143621408565
 20
-206.3954684908604
 30
0.0
 10
471.5143621408565
 20
-71.61353611760056
 30
0.0
 10
471.5143621408565
 20
-71.61353611760056
 30
0.0
  0
POLYLINE
  5
9A
330
41
100
AcDbEntity
  8
Layer 1
 62
    18
420
    65793
370
    18
100
AcDb2dPolyline
 66
     1
 10
0.0
 20
0.0
 30
0.0
  0
VERTEX
  5
9B
330
9A
100
AcDbEntity
  8
Layer 1
 62
    18
420
    65793
370
    18
100
AcDbVertex
100
AcDb2dVertex
 10
313.1043931049363
 20
21.11514919586006
 30
0.0
  0
VERTEX
  5
9C
330
9A
100
AcDbEntity
  8
Layer 1
 62
    18
420
    65793
370
    18
100
AcDbVertex
100
AcDb2dVertex
 10
313.1043931049363
 20
46.11545351768073
 30
0.0
  0
VERTEX
  5
9D
330
9A
100
AcDbEntity
  8
Layer 1
 62
    18
420
    65793
370
    18
100
AcDbVertex
100
AcDb2dVertex
 10
308.1044829634996
 20
46.11545351768073
 30
0.0
  0
VERTEX
  5
9E
330
9A
100
AcDbEntity
  8
Layer 1
 62
    18
420
    65793
370
    18
100
AcDbVertex
100
AcDb2dVertex
 10
308.1044829634996
 20
21.11514919586006
 30
0.0
  0
VERTEX
  5
9F
330
9A
100
AcDbEntity
  8
Layer 1
 62
    18
420
    65793
370
    18
100
AcDbVertex
100
AcDb2dVertex
 10
313.1043931049363
 20
21.11514919586006
 30
0.0
  0
VERTEX
  5
A0
330
9A
100
AcDbEntity
  8
Layer 1
 62
    18
420
    65793
370
    18
100
AcDbVertex
100
AcDb2dVertex
 10
313.1043931049363
 20
21.11514919586006
 30
0.0
  0
SEQEND
  5
A1
330
9A
100
AcDbEntity
  8
Layer 1
 62
    18
420
    65793
370
    18
  0
POLYLINE
  5
A2
330
41
100
AcDbEntity
  8
Layer 1
 62
    18
420
    65793
370
    18
100
AcDb2dPolyline
 66
     1
 10
0.0
 20
0.0
 30
0.0
  0
VERTEX
  5
A3
330
A2
100
AcDbEntity
  8
Layer 1
 62
    18
420
    65793
370
    18
100
AcDbVertex
100
AcDb2dVertex
 10
298.1046626806263
 20
21.11514919586006
 30
0.0
  0
VERTEX
  5
A4
330
A2
100
AcDbEntity
  8
Layer 1
 62
    18
420
    65793
370
    18
100
AcDbVertex
100
AcDb2dVertex
 10
298.1046626806263
 20
46.11545351768073
 30
0.0
  0
VERTEX
  5
A5
330
A2
100
AcDbEntity
  8
Layer 1
 62
    18
420
    65793
370
    18
100
AcDbVertex
100
AcDb2dVertex
 10
293.1047094754961
 20
46.11545351768073
 30
0.0
  0
VERTEX
  5
A6
330
A2
100
AcDbEntity
  8
Layer 1
 62
    18
420
    65793
370
    18
100
AcDbVertex
100
AcDb2dVertex
 10
293.1047094754961
 20
21.11514919586006
 30
0.0
  0
VERTEX
  5
A7
330
A2
100
AcDbEntity
  8
Layer 1
 62
    18
420
    65793
370
    18
100
AcDbVertex
100
AcDb2dVertex
 10
298.1046626806263
 20
21.11514919586006
 30
0.0
  0
VERTEX
  5
A8
330
A2
100
AcDbEntity
  8
Layer 1
 62
    18
420
    65793
370
    18
100
AcDbVertex
100
AcDb2dVertex
 10
298.1046626806263
 20
21.11514919586006
 30
0.0
  0
SEQEND
  5
A9
330
A2
100
AcDbEntity
  8
Layer 1
 62
    18
420
    65793
370
    18
  0
POLYLINE
  5
AA
330
41
100
AcDbEntity
  8
Layer 1
 62
    18
420
    65793
370
    18
100
AcDb2dPolyline
 66
     1
 10
0.0
 20
0.0
 30
0.0
  0
VERTEX
  5
AB
330
AA
100
AcDbEntity
  8
Layer 1
 62
    18
420
    65793
370
    18
100
AcDbVertex
100
AcDb2dVertex
 10
181.1044829952496
 20
56.32009527762028
 30
0.0
  0
VERTEX
  5
AC
330
AA
100
AcDbEntity
  8
Layer 1
 62
    18
420
    65793
370
    18
100
AcDbVertex
100
AcDb2dVertex
 10
146.1046813682573
 20
56.32009527762028
 30
0.0
  0
VERTEX
  5
AD
330
AA
100
AcDbEntity
  8
Layer 1
 62
    18
420
    65793
370
    18
100
AcDbVertex
100
AcDb2dVertex
 10
146.1046813682573
 20
56.6151571554638
 30
0.0
  0
VERTEX
  5
AE
330
AA
100
AcDbEntity
  8
Layer 1
 62
    18
420
    65793
370
    18
100
AcDbVertex
100
AcDb2dVertex
 10
151.1046345733876
 20
56.6151571554638
 30
0.0
  0
VERTEX
  5
AF
330
AA
100
AcDbEntity
  8
Layer 1
 62
    18
420
    65793
370
    18
100
AcDbVertex
100
AcDb2dVertex
 10
151.1046345733876
 20
56.6151571554638
 30
0.0
  0
VERTEX
  5
B0
330
AA
100
AcDbEntity
  8
Layer 1
 62
    18
420
    65793
370
    18
100
AcDbVertex
100
AcDb2dVertex
 10
186.1043931366862
 20
56.6151571554638
 30
0.0
  0
VERTEX
  5
B1
330
AA
100
AcDbEntity
  8
Layer 1
 62
    18
420
    65793
370
    18
100
AcDbVertex
100
AcDb2dVertex
 10
186.1043931366862
 20
56.31975076807175
 30
0.0
  0
VERTEX
  5
B2
330
AA
100
AcDbEntity
  8
Layer 1
 62
    18
420
    65793
370
    18
100
AcDbVertex
100
AcDb2dVertex
 10
181.1044829952496
 20
56.31975076807175
 30
0.0
  0
VERTEX
  5
B3
330
AA
100
AcDbEntity
  8
Layer 1
 62
    18
420
    65793
370
    18
100
AcDbVertex
100
AcDb2dVertex
 10
181.1044829952496
 20
56.32009527762028
 30
0.0
  0
VERTEX
  5
B4
330
AA
100
AcDbEntity
  8
Layer 1
 62
    18
420
    65793
370
    18
100
AcDbVertex
100
AcDb2dVertex
 10
181.1044829952496
 20
56.32009527762028
 30
0.0
  0
SEQEND
  5
B5
330
AA
100
AcDbEntity
  8
Layer 1
 62
    18
420
    65793
370
    18
  0
POLYLINE
  5
B6
330
41
100
AcDbEntity
  8
Layer 1
 62
    18
420
    65793
370
    18
100
AcDb2dPolyline
 66
     1
 10
0.0
 20
0.0
 30
0.0
  0
VERTEX
  5
B7
330
B6
100
AcDbEntity
  8
Layer 1
 62
    18
420
    65793
370
    18
100
AcDbVertex
100
AcDb2dVertex
 10
255.6044575453095
 20
56.31485600369469
 30
0.0
  0
VERTEX
  5
B8
330
B6
100
AcDbEntity
  8
Layer 1
 62
    18
420
    65793
370
    18
100
AcDbVertex
100
AcDb2dVertex
 10
250.6045904675664
 20
56.31485600369469
 30
0.0
  0
VERTEX
  5
B9
330
B6
100
AcDbEntity
  8
Layer 1
 62
    18
420
    65793
370
    18
100
AcDbVertex
100
AcDb2dVertex
 10
250.6045904675664
 20
56.6151571554638
 30
0.0
  0
VERTEX
  5
BA
330
B6
100
AcDbEntity
  8
Layer 1
 62
    18
420
    65793
370
    18
100
AcDbVertex
100
AcDb2dVertex
 10
285.6043059671715
 20
56.6151571554638
 30
0.0
  0
VERTEX
  5
BB
330
B6
100
AcDbEntity
  8
Layer 1
 62
    18
420
    65793
370
    18
100
AcDbVertex
100
AcDb2dVertex
 10
285.6043059671715
 20
56.6151571554638
 30
0.0
  0
VERTEX
  5
BC
330
B6
100
AcDbEntity
  8
Layer 1
 62
    18
420
    65793
370
    18
100
AcDbVertex
100
AcDb2dVertex
 10
290.6043022359953
 20
56.6151571554638
 30
0.0
  0
VERTEX
  5
BD
330
B6
100
AcDbEntity
  8
Layer 1
 62
    18
420
    65793
370
    18
100
AcDbVertex
100
AcDb2dVertex
 10
290.6043022359953
 20
56.31520051324321
 30
0.0
  0
VERTEX
  5
BE
330
B6
100
AcDbEntity
  8
Layer 1
 62
    18
420
    65793
370
    18
100
AcDbVertex
100
AcDb2dVertex
 10
255.6044575453095
 20
56.31520051324321
 30
0.0
  0
VERTEX
  5
BF
330
B6
100
AcDbEntity
  8
Layer 1
 62
    18
420
    65793
370
    18
100
AcDbVertex
100
AcDb2dVertex
 10
255.6044575453095
 20
56.31485600369469
 30
0.0
  0
VERTEX
  5
C0
330
B6
100
AcDbEntity
  8
Layer 1
 62
    18
420
    65793
370
    18
100
AcDbVertex
100
AcDb2dVertex
 10
255.6044575453095
 20
56.31485600369469
 30
0.0
  0
SEQEND
  5
C1
330
B6
100
AcDbEntity
  8
Layer 1
 62
    18
420
    65793
370
    18
  0
ENDBLK
  5
44
330
41
100
AcDbEntity
  8
0
100
AcDbBlockEnd
  0
ENDSEC
  0
SECTION
  2
ENTITIES
  0
INSERT
  5
42
330
1F
100
AcDbEntity
  8
Layer 1
100
AcDbBlockReference
  2
block 2
 10
0.0
 20
0.0
 30
0.0
  0
POLYLINE
  5
C2
330
1F
100
AcDbEntity
  8
Layer 1
 62
    18
420
    65793
370
    18
100
AcDb2dPolyline
 66
     1
 10
0.0
 20
0.0
 30
0.0
  0
VERTEX
  5
C3
330
C2
100
AcDbEntity
  8
Layer 1
 62
    18
420
    65793
370
    18
100
AcDbVertex
100
AcDb2dVertex
 10
144.5210571010751
 20
-26.59595664751815
 30
0.0
  0
VERTEX
  5
CF
330
C2
100
AcDbEntity
  8
0
100
AcDbVertex
100
AcDb2dVertex
 10
144.5210571010751
 20
-26.59595664751815
 30
0.0
  0
SEQEND
  5
C4
330
C2
100
AcDbEntity
  8
Layer 1
 62
    18
420
    65793
370
    18
  0
SPLINE
  5
C5
330
1F
100
AcDbEntity
  8
Layer 1
 62
    18
420
    65793
370
    18
100
AcDbSpline
210
0.0
220
0.0
230
1.0
 70
    11
 71
     3
 72
    23
 73
    19
 74
     0
 42
0.0000000001
 43
0.0000000001
 12
1.0
 22
0.0
 32
0.0
 13
1.0
 23
0.0
 33
0.0
 40
0.0
 40
0.0
 40
0.0
 40
0.0
 40
1.0
 40
1.0
 40
1.0
 40
2.0
 40
2.0
 40
2.0
 40
3.0
 40
3.0
 40
3.0
 40
4.0
 40
4.0
 40
4.0
 40
5.0
 40
5.0
 40
5.0
 40
6.0
 40
6.0
 40
6.0
 40
6.0
 10
-0.9028693495778488
 20
-109.6504047357314
 30
0.0
 10
-0.902869349129943
 20
-99.68124580267683
 30
0.0
 10
-2.402885454809808
 20
-89.76819886227055
 30
0.0
 10
-5.352080976377342
 20
-80.24459843455986
 30
0.0
 10
-5.352080976377342
 20
-80.24459843455986
 30
0.0
 10
-4.98210202452559
 20
-80.06715448523939
 30
0.0
 10
-4.98210202452559
 20
-80.06715448523939
 30
0.0
 10
-2.014496773961318
 20
-89.64684537381996
 30
0.0
 10
-0.505674142950492
 20
-99.61951399796719
 30
0.0
 10
-0.5056741434009647
 20
-109.6504047357481
 30
0.0
 10
-0.5056741434009647
 20
-109.6504047357481
 30
0.0
 10
-0.5056741438501541
 20
-119.6505910600167
 30
0.0
 10
-0.5056741438501541
 20
-119.6505910600167
 30
0.0
 10
-0.5056741438501541
 20
-119.6505910600167
 30
0.0
 10
-0.9028693500238297
 20
-119.5909693762584
 30
0.0
 10
-0.9028693500238297
 20
-119.5909693762584
 30
0.0
 10
-0.9028693500238297
 20
-119.5909693762584
 30
0.0
 10
-0.9028693495778488
 20
-109.6504047357314
 30
0.0
 10
-0.9028693495778488
 20
-109.6504047357314
 30
0.0
  0
POLYLINE
  5
C6
330
1F
100
AcDbEntity
  8
Layer 1
 62
    18
420
    65793
370
    18
100
AcDb2dPolyline
 66
     1
 10
0.0
 20
0.0
 30
0.0
  0
VERTEX
  5
C7
330
C6
100
AcDbEntity
  8
Layer 1
 62
    18
420
    65793
370
    18
100
AcDbVertex
100
AcDb2dVertex
 10
-8.769855321112138
 20
-116.4830195475796
 30
0.0
  0
VERTEX
  5
C8
330
C6
100
AcDbEntity
  8
Layer 1
 62
    18
420
    65793
370
    18
100
AcDbVertex
100
AcDb2dVertex
 10
-18.31496606387373
 20
-121.9937727535098
 30
0.0
  0
SEQEND
  5
C9
330
C6
100
AcDbEntity
  8
Layer 1
 62
    18
420
    65793
370
    18
  0
POLYLINE
  5
CA
330
1F
100
AcDbEntity
  8
Layer 1
 62
    18
420
    65793
370
    18
100
AcDb2dPolyline
 66
     1
 10
0.0
 20
0.0
 30
0.0
  0
VERTEX
  5
CB
330
CA
100
AcDbEntity
  8
Layer 1
 62
    18
420
    65793
370
    18
100
AcDbVertex
100
AcDb2dVertex
 10
-100.5058363686198
 20
-74.6506031042675
 30
0.0
  0
VERTEX
  5
CC
330
CA
100
AcDbEntity
  8
Layer 1
 62
    18
420
    65793
370
    18
100
AcDbVertex
100
AcDb2dVertex
 10
-100.5058363683503
 20
-68.65056021161571
 30
0.0
  0
SEQEND
  5
CD
330
CA
100
AcDbEntity
  8
Layer 1
 62
    18
420
    65793
370
    18
  0
SPLINE
  5
CE
330
1F
100
AcDbEntity
  8
Layer 1
 62
    18
420
    65793
370
    18
100
AcDbSpline
210
0.0
220
0.0
230
1.0
 70
     8
 71
     3
 72
   116
 73
   112
 74
     0
 42
0.0000000001
 43
0.0000000001
 12
1.0
 22
0.0
 32
0.0
 13
1.0
 23
0.0
 33
0.0
 40
0.0
 40
0.0
 40
0.0
 40
0.0
 40
1.0
 40
1.0
 40
1.0
 40
2.0
 40
2.0
 40
2.0
 40
3.0
 40
3.0
 40
3.0
 40
4.0
 40
4.0
 40
4.0
 40
5.0
 40
5.0
 40
5.0
 40
6.0
 40
6.0
 40
6.0
 40
7.0
 40
7.0
 40
7.0
 40
8.0
 40
8.0
 40
8.0
 40
9.0
 40
9.0
 40
9.0
 40
10.0
 40
10.0
 40
10.0
 40
11.0
 40
11.0
 40
11.0
 40
12.0
 40
12.0
 40
12.0
 40
13.0
 40
13.0
 40
13.0
 40
14.0
 40
14.0
 40
14.0
 40
15.0
 40
15.0
 40
15.0
 40
16.0
 40
16.0
 40
16.0
 40
17.0
 40
17.0
 40
17.0
 40
18.0
 40
18.0
 40
18.0
 40
19.0
 40
19.0
 40
19.0
 40
20.0
 40
20.0
 40
20.0
 40
21.0
 40
21.0
 40
21.0
 40
22.0
 40
22.0
 40
22.0
 40
23.0
 40
23.0
 40
23.0
 40
24.0
 40
24.0
 40
24.0
 40
25.0
 40
25.0
 40
25.0
 40
26.0
 40
26.0
 40
26.0
 40
27.0
 40
27.0
 40
27.0
 40
28.0
 40
28.0
 40
28.0
 40
29.0
 40
29.0
 40
29.0
 40
30.0
 40
30.0
 40
30.0
 40
31.0
 40
31.0
 40
31.0
 40
32.0
 40
32.0
 40
32.0
 40
33.0
 40
33.0
 40
33.0
 40
34.0
 40
34.0
 40
34.0
 40
35.0
 40
35.0
 40
35.0
 40
36.0
 40
36.0
 40
36.0
 40
37.0
 40
37.0
 40
37.0
 40
37.0
 10
-100.5058363686198
 20
-74.6506031042675
 30
0.0
 10
-93.94523337682395
 20
-74.64005249963814
 30
0.0
 10
-88.49431674632135
 20
-75.09116089216553
 30
0.0
 10
-81.88819543049019
 20
-76.48638150029461
 30
0.0
 10
-81.86384291177883
 20
-76.49273339509683
 30
0.0
 10
-81.83880137397041
 20
-76.4983747389549
 30
0.0
 10
-81.81373830431586
 20
-76.50261651277239
 30
0.0
 10
-81.26943474949766
 20
-76.59927297300482
 30
0.0
 10
-80.74976362737783
 20
-76.23592305856796
 30
0.0
 10
-80.65347320854072
 20
-75.691597971903
 30
0.0
 10
-80.65347320854072
 20
-75.691597971903
 30
0.0
 10
-80.65347320854072
 20
-75.691597971903
 30
0.0
 10
-80.65347320854072
 20
-75.691597971903
 30
0.0
 10
-80.65347320854072
 20
-75.691597971903
 30
0.0
 10
-80.13946496203748
 20
-73.38159685352572
 30
0.0
 10
-80.13946496203748
 20
-73.38159685352572
 30
0.0
 10
-80.13946496203748
 20
-73.38159685352572
 30
0.0
 10
-80.13946496203748
 20
-73.38159685352572
 30
0.0
 10
-80.13946496203748
 20
-73.38159685352572
 30
0.0
 10
-80.13946496203748
 20
-73.38159685352572
 30
0.0
 10
-80.14123057347432
 20
-73.39182448074756
 30
0.0
 10
-80.13946496203748
 20
-73.38159685352572
 30
0.0
 10
-80.03044922175236
 20
-72.8400709069425
 30
0.0
 10
-80.37900675744812
 20
-72.30278673415562
 30
0.0
 10
-80.9205327040307
 20
-72.19379252571696
 30
0.0
 10
-82.83962314407115
 20
-71.78703440805688
 30
0.0
 10
-83.580599013776
 20
-71.65939894995878
 30
0.0
 10
-85.50182110665308
 20
-71.36871901830483
 30
0.0
 10
-85.50182110665308
 20
-71.36871901830483
 30
0.0
 10
-85.50182110662612
 20
-70.77745450564883
 30
0.0
 10
-85.50182110662612
 20
-70.77745450564883
 30
0.0
 10
-60.45989572514434
 20
-74.5677054959514
 30
0.0
 10
-37.73000739454587
 20
-88.01945976058249
 30
0.0
 10
-22.1887294926706
 20
-107.3862578182333
 30
0.0
 10
-22.1887294926706
 20
-107.3862578182333
 30
0.0
 10
-22.67168881602125
 20
-107.6653105525168
 30
0.0
 10
-22.67168881602125
 20
-107.6653105525168
 30
0.0
 10
-23.88419017198691
 20
-106.1466048033308
 30
0.0
 10
-24.45245797825184
 20
-105.3473400380573
 30
0.0
 10
-25.76409195680813
 20
-103.8886004821563
 30
0.0
 10
-25.77078836115695
 20
-103.8808490173145
 30
0.0
 10
-25.77782927505493
 20
-103.8734635938667
 30
0.0
 10
-25.78454721125052
 20
-103.8660351067266
 30
0.0
 10
-26.16202201718202
 20
-103.4628082120082
 30
0.0
 10
-26.79490758966856
 20
-103.441986916141
 30
0.0
 10
-27.19813448438695
 20
-103.8198277634678
 30
0.0
 10
-27.19813448438695
 20
-103.8198277634678
 30
0.0
 10
-27.18329904195295
 20
-103.8060689133736
 30
0.0
 10
-27.18329904195295
 20
-103.8060689133736
 30
0.0
 10
-27.18329904195295
 20
-103.8060689133736
 30
0.0
 10
-28.99094064313798
 20
-105.4651838352955
 30
0.0
 10
-28.99094064313798
 20
-105.4651838352955
 30
0.0
 10
-28.99094064313798
 20
-105.4651838352955
 30
0.0
 10
-28.92707718557759
 20
-105.4062511706535
 30
0.0
 10
-28.92707718557759
 20
-105.4062511706535
 30
0.0
 10
-28.94649891137633
 20
-105.4228306926763
 30
0.0
 10
-28.96555459577976
 20
-105.4397977879399
 30
0.0
 10
-28.98353368784469
 20
-105.4574108386069
 30
0.0
 10
-29.37864307632661
 20
-105.8447687622117
 30
0.0
 10
-29.38465046160725
 20
-106.478343353796
 30
0.0
 10
-28.99765857939775
 20
-106.87310823273
 30
0.0
 10
-24.4863275735351
 20
-111.896660342137
 30
0.0
 10
-21.58591197208879
 20
-116.3069536358616
 30
0.0
 10
-18.31496606387373
 20
-121.9937727535098
 30
0.0
 10
-15.02530898080376
 20
-127.6702781165517
 30
0.0
 10
-12.29128120398221
 20
-133.7482878265256
 30
0.0
 10
-10.19649089446417
 20
-140.1670928414263
 30
0.0
 10
-10.189794490116
 20
-140.1914345942155
 30
0.0
 10
-10.18202149342805
 20
-140.2157871129269
 30
0.0
 10
-10.17321496809516
 20
-140.2397628243195
 30
0.0
 10
-9.984832840616088
 20
-140.7594016486615
 30
0.0
 10
-9.410513891389709
 20
-141.0278607143753
 30
0.0
 10
-8.890864301124994
 20
-140.839134077347
 30
0.0
 10
-8.890864301124994
 20
-140.839134077347
 30
0.0
 10
-8.973740379393318
 20
-140.8655859511159
 30
0.0
 10
-8.973740379393318
 20
-140.8655859511159
 30
0.0
 10
-8.973740379393318
 20
-140.8655859511159
 30
0.0
 10
-6.633099442987645
 20
-140.129336748253
 30
0.0
 10
-6.633099442987645
 20
-140.129336748253
 30
0.0
 10
-6.633099442987645
 20
-140.129336748253
 30
0.0
 10
-6.652112063697509
 20
-140.1353333675808
 30
0.0
 10
-6.652112063697509
 20
-140.1353333675808
 30
0.0
 10
-6.642594987419507
 20
-140.132168186105
 30
0.0
 10
-6.633099442987645
 20
-140.129336748253
 30
0.0
 10
-6.623216325314335
 20
-140.126171566776
 30
0.0
 10
-6.100035512177881
 20
-139.949438168407
 30
0.0
 10
-5.81887265686226
 20
-139.3821601330799
 30
0.0
 10
-5.995240013837168
 20
-138.8589900858656
 30
0.0
 10
-6.602739538883349
 20
-136.993503178346
 30
0.0
 10
-7.262087750983823
 20
-135.1555232050889
 30
0.0
 10
-7.970808487759209
 20
-133.3464820339053
 30
0.0
 10
-7.970808487759209
 20
-133.3464820339053
 30
0.0
 10
-7.445151512236956
 20
-133.0430983127599
 30
0.0
 10
-7.445151512236956
 20
-133.0430983127599
 30
0.0
 10
-6.595677093058375
 20
-135.205627812582
 30
0.0
 10
-5.816719472095425
 20
-137.4090678212902
 30
0.0
 10
-5.111529958212313
 20
-139.6506191987988
 30
0.0
 10
-5.111529958212313
 20
-139.6506191987988
 30
0.0
 10
-0.505674144747891
 20
-139.6506191990054
 30
0.0
 10
-0.505674144747891
 20
-139.6506191990054
 30
0.0
 10
5.017416809817517
 20
-139.6506191992544
 30
0.0
 10
9.494490647874795
 20
-135.1735238297514
 30
0.0
 10
9.494490648123133
 20
-129.6507773847345
 30
0.0
 10
9.494490648123133
 20
-129.6507773847345
 30
0.0
 10
9.49449064902087
 20
-109.6504047361973
 30
0.0
 10
9.49449064902087
 20
-109.6504047361973
 30
0.0
 10
9.494490650517312
 20
-76.32276633035883
 30
0.0
 10
-5.327451313566469
 20
-46.45626463495733
 30
0.0
 10
-28.73883453299027
 20
-26.28406784804215
 30
0.0
 10
-48.00262423418929
 20
-9.685877713251923
 30
0.0
 10
-73.08195043325242
 20
0.3492117357778129
 30
0.0
 10
-100.5058363652528
 20
0.3492117370089126
 30
0.0
  0
ENDSEC
  0
SECTION
  2
OBJECTS
  0
DICTIONARY
  5
C
330
0
100
AcDbDictionary
281
     1
  3
ACAD_GROUP
350
D
  3
ACAD_LAYOUT
350
1A
  3
ACAD_MATERIAL
350
3B
  3
ACAD_MLEADERSTYLE
350
D1
  3
ACAD_MLINESTYLE
350
17
  3
ACAD_PLOTSETTINGS
350
19
  3
ACAD_PLOTSTYLENAME
350
E
  3
ACAD_TABLESTYLE
350
D0
  3
ACAD_VISUALSTYLE
350
2A
  0
SUN
  5
3F
330
29
100
AcDbSun
 90
        1
290
     0
 63
     7
421
 16777215
 40
1.0
291
     1
 91
  2455826
 92
 54000000
292
     0
 70
     2
 71
   256
280
     1
  0
DICTIONARY
  5
D
102
{ACAD_REACTORS
330
C
102
}
330
C
100
AcDbDictionary
281
     1
  0
DICTIONARY
  5
1A
102
{ACAD_REACTORS
330
C
102
}
330
C
100
AcDbDictionary
281
     1
  3
Layout1
350
1E
  3
Layout2
350
26
  3
Model
350
22
  0
DICTIONARY
  5
3B
102
{ACAD_REACTORS
330
C
102
}
330
C
100
AcDbDictionary
281
     1
  3
ByBlock
350
3D
  3
ByLayer
350
3C
  3
Global
350
3E
  0
DICTIONARY
  5
D1
102
{ACAD_REACTORS
330
C
102
}
330
C
100
AcDbDictionary
281
     1
  0
DICTIONARY
  5
17
102
{ACAD_REACTORS
330
C
102
}
330
C
100
AcDbDictionary
281
     1
  3
Standard
350
18
  0
DICTIONARY
  5
19
102
{ACAD_REACTORS
330
C
102
}
330
C
100
AcDbDictionary
281
     1
  0
ACDBDICTIONARYWDFLT
  5
E
102
{ACAD_REACTORS
330
C
102
}
330
C
100
AcDbDictionary
281
     1
  3
Normal
350
F
100
AcDbDictionaryWithDefault
340
F
  0
DICTIONARY
  5
D0
102
{ACAD_REACTORS
330
C
102
}
330
C
100
AcDbDictionary
281
     1
  0
DICTIONARY
  5
2A
102
{ACAD_REACTORS
330
C
102
}
330
C
100
AcDbDictionary
281
     1
  3
2dWireframe
350
2F
  3
3D Hidden
350
31
  3
3dWireframe
350
30
  3
Basic
350
32
  3
Brighten
350
36
  3
ColorChange
350
3A
  3
Conceptual
350
34
  3
Dim
350
35
  3
Facepattern
350
39
  3
Flat
350
2B
  3
FlatWithEdges
350
2C
  3
Gouraud
350
2D
  3
GouraudWithEdges
350
2E
  3
Linepattern
350
38
  3
Realistic
350
33
  3
Thicken
350
37
  0
LAYOUT
  5
1E
102
{ACAD_REACTORS
330
1A
102
}
330
1A
100
AcDbPlotSettings
  1

  2
none_device
  4

  6

 40
0.0
 41
0.0
 42
0.0
 43
0.0
 44
0.0
 45
0.0
 46
0.0
 47
0.0
 48
0.0
 49
0.0
140
0.0
141
0.0
142
1.0
143
1.0
 70
   688
 72
     0
 73
     0
 74
     5
  7

 75
    16
 76
     0
 77
     2
 78
   300
147
1.0
148
0.0
149
0.0
100
AcDbLayout
  1
Layout1
 70
     1
 71
     1
 10
0.0
 20
0.0
 11
12.0
 21
9.0
 12
0.0
 22
0.0
 32
0.0
 14
1.000000000000000E+20
 24
1.000000000000000E+20
 34
1.000000000000000E+20
 15
-1.000000000000000E+20
 25
-1.000000000000000E+20
 35
-1.000000000000000E+20
146
0.0
 13
0.0
 23
0.0
 33
0.0
 16
1.0
 26
0.0
 36
0.0
 17
0.0
 27
1.0
 37
0.0
 76
     0
330
1B
  0
LAYOUT
  5
26
102
{ACAD_REACTORS
330
1A
102
}
330
1A
100
AcDbPlotSettings
  1

  2
none_device
  4

  6

 40
0.0
 41
0.0
 42
0.0
 43
0.0
 44
0.0
 45
0.0
 46
0.0
 47
0.0
 48
0.0
 49
0.0
140
0.0
141
0.0
142
1.0
143
1.0
 70
   688
 72
     0
 73
     0
 74
     5
  7

 75
    16
 76
     0
 77
     2
 78
   300
147
1.0
148
0.0
149
0.0
100
AcDbLayout
  1
Layout2
 70
     1
 71
     2
 10
0.0
 20
0.0
 11
0.0
 21
0.0
 12
0.0
 22
0.0
 32
0.0
 14
0.0
 24
0.0
 34
0.0
 15
0.0
 25
0.0
 35
0.0
146
0.0
 13
0.0
 23
0.0
 33
0.0
 16
1.0
 26
0.0
 36
0.0
 17
0.0
 27
1.0
 37
0.0
 76
     0
330
23
  0
LAYOUT
  5
22
102
{ACAD_REACTORS
330
1A
102
}
330
1A
100
AcDbPlotSettings
  1

  2
none_device
  4

  6

 40
0.0
 41
0.0
 42
0.0
 43
0.0
 44
0.0
 45
0.0
 46
0.0
 47
0.0
 48
0.0
 49
0.0
140
0.0
141
0.0
142
1.0
143
1.0
 70
  1712
 72
     0
 73
     0
 74
     0
  7

 75
     0
 76
     0
 77
     2
 78
   300
147
1.0
148
0.0
149
0.0
100
AcDbLayout
  1
Model
 70
     1
 71
     0
 10
0.0
 20
0.0
 11
12.0
 21
9.0
 12
0.0
 22
0.0
 32
0.0
 14
1.000000000000000E+20
 24
1.000000000000000E+20
 34
1.000000000000000E+20
 15
-1.000000000000000E+20
 25
-1.000000000000000E+20
 35
-1.000000000000000E+20
146
0.0
 13
0.0
 23
0.0
 33
0.0
 16
1.0
 26
0.0
 36
0.0
 17
0.0
 27
1.0
 37
0.0
 76
     0
330
1F
331
29
  0
MATERIAL
  5
3D
102
{ACAD_REACTORS
330
3B
102
}
330
3B
100
AcDbMaterial
  1
ByBlock
 72
     1
 94
      127
  0
MATERIAL
  5
3C
102
{ACAD_REACTORS
330
3B
102
}
330
3B
100
AcDbMaterial
  1
ByLayer
 72
     1
 94
      127
  0
MATERIAL
  5
3E
102
{ACAD_REACTORS
330
3B
102
}
330
3B
100
AcDbMaterial
  1
Global
 72
     1
 94
      127
  0
MLINESTYLE
  5
18
102
{ACAD_REACTORS
330
17
102
}
330
17
100
AcDbMlineStyle
  2
Standard
 70
     0
  3

 62
   256
 51
90.0
 52
90.0
 71
     2
 49
0.5
 62
   256
  6
BYLAYER
 49
-0.5
 62
   256
  6
BYLAYER
  0
ACDBPLACEHOLDER
  5
F
102
{ACAD_REACTORS
330
E
102
}
330
E
  0
VISUALSTYLE
  5
2F
102
{ACAD_REACTORS
330
2A
102
}
330
2A
100
AcDbVisualStyle
  2
2dWireframe
 70
     4
177
     2
291
     0
 71
     0
176
     1
 72
     2
176
     1
 73
     0
176
     1
 90
        0
176
     1
 40
-0.6
176
     1
 41
-30.0
176
     1
 62
     5
 63
     7
421
 16777215
176
     1
 74
     1
176
     1
 91
        4
176
     1
 64
     7
176
     1
 65
   257
176
     1
 75
     1
176
     1
175
     1
176
     1
 42
1.0
176
     1
 92
        0
176
     1
 66
   257
176
     1
 43
1.0
176
     1
 76
     1
176
     1
 77
     6
176
     1
 78
     2
176
     1
 67
     7
176
     1
 79
     5
176
     1
170
     0
176
     1
171
     0
176
     1
290
     0
176
     1
 93
        1
176
     1
 44
0.0
176
     1
173
     0
176
     1
  0
VISUALSTYLE
  5
31
102
{ACAD_REACTORS
330
2A
102
}
330
2A
100
AcDbVisualStyle
  2
3D Hidden
 70
     6
177
     2
291
     0
 71
     1
176
     1
 72
     2
176
     1
 73
     2
176
     1
 90
        0
176
     1
 40
-0.6
176
     1
 41
-30.0
176
     1
 62
     5
 63
     7
421
 16777215
176
     1
 74
     2
176
     1
 91
        2
176
     1
 64
     7
176
     1
 65
   257
176
     1
 75
     2
176
     1
175
     1
176
     1
 42
40.0
176
     1
 92
        0
176
     1
 66
   257
176
     1
 43
1.0
176
     1
 76
     1
176
     1
 77
     6
176
     1
 78
     2
176
     1
 67
     7
176
     1
 79
     3
176
     1
170
     0
176
     1
171
     0
176
     1
290
     0
176
     1
 93
        1
176
     1
 44
0.0
176
     1
173
     0
176
     1
  0
VISUALSTYLE
  5
30
102
{ACAD_REACTORS
330
2A
102
}
330
2A
100
AcDbVisualStyle
  2
3dWireframe
 70
     5
177
     2
291
     0
 71
     0
176
     1
 72
     2
176
     1
 73
     0
176
     1
 90
        0
176
     1
 40
-0.6
176
     1
 41
-30.0
176
     1
 62
     5
 63
     7
421
 16777215
176
     1
 74
     1
176
     1
 91
        4
176
     1
 64
     7
176
     1
 65
   257
176
     1
 75
     1
176
     1
175
     1
176
     1
 42
1.0
176
     1
 92
        0
176
     1
 66
   257
176
     1
 43
1.0
176
     1
 76
     1
176
     1
 77
     6
176
     1
 78
     2
176
     1
 67
     7
176
     1
 79
     5
176
     1
170
     0
176
     1
171
     0
176
     1
290
     0
176
     1
 93
        1
176
     1
 44
0.0
176
     1
173
     0
176
     1
  0
VISUALSTYLE
  5
32
102
{ACAD_REACTORS
330
2A
102
}
330
2A
100
AcDbVisualStyle
  2
Basic
 70
     7
177
     2
291
     1
 71
     1
176
     1
 72
     0
176
     1
 73
     1
176
     1
 90
        0
176
     1
 40
-0.6
176
     1
 41
-30.0
176
     1
 62
     5
 63
     7
421
 16777215
176
     1
 74
     0
176
     1
 91
        4
176
     1
 64
     7
176
     1
 65
   257
176
     1
 75
     1
176
     1
175
     1
176
     1
 42
1.0
176
     1
 92
        8
176
     1
 66
     7
176
     1
 43
1.0
176
     1
 76
     1
176
     1
 77
     6
176
     1
 78
     2
176
     1
 67
     7
176
     1
 79
     5
176
     1
170
     0
176
     1
171
     0
176
     1
290
     0
176
     1
 93
        1
176
     1
 44
0.0
176
     1
173
     0
176
     1
  0
VISUALSTYLE
  5
36
102
{ACAD_REACTORS
330
2A
102
}
330
2A
100
AcDbVisualStyle
  2
Brighten
 70
    12
177
     2
291
     1
 71
     2
176
     1
 72
     2
176
     1
 73
     0
176
     1
 90
        0
176
     1
 40
-0.6
176
     1
 41
-30.0
176
     1
 62
     5
 63
     7
421
 16777215
176
     1
 74
     1
176
     1
 91
        4
176
     1
 64
     7
176
     1
 65
   257
176
     1
 75
     1
176
     1
175
     1
176
     1
 42
1.0
176
     1
 92
        8
176
     1
 66
     7
176
     1
 43
1.0
176
     1
 76
     1
176
     1
 77
     6
176
     1
 78
     2
176
     1
 67
     7
176
     1
 79
     5
176
     1
170
     0
176
     1
171
     0
176
     1
290
     0
176
     1
 93
        1
176
     1
 44
50.0
176
     1
173
     0
176
     1
  0
VISUALSTYLE
  5
3A
102
{ACAD_REACTORS
330
2A
102
}
330
2A
100
AcDbVisualStyle
  2
ColorChange
 70
    16
177
     2
291
     1
 71
     2
176
     1
 72
     2
176
     1
 73
     3
176
     1
 90
        0
176
     1
 40
-0.6
176
     1
 41
-30.0
176
     1
 62
     5
 63
     8
421
  8421504
176
     1
 74
     1
176
     1
 91
        4
176
     1
 64
     7
176
     1
 65
   257
176
     1
 75
     1
176
     1
175
     1
176
     1
 42
1.0
176
     1
 92
        8
176
     1
 66
     8
424
  8421504
176
     1
 43
1.0
176
     1
 76
     1
176
     1
 77
     6
176
     1
 78
     2
176
     1
 67
     7
176
     1
 79
     5
176
     1
170
     0
176
     1
171
     0
176
     1
290
     0
176
     1
 93
        1
176
     1
 44
0.0
176
     1
173
     0
176
     1
  0
VISUALSTYLE
  5
34
102
{ACAD_REACTORS
330
2A
102
}
330
2A
100
AcDbVisualStyle
  2
Conceptual
 70
     9
177
     2
291
     0
 71
     3
176
     1
 72
     2
176
     1
 73
     0
176
     1
 90
        0
176
     1
 40
-0.6
176
     1
 41
-30.0
176
     1
 62
     5
 63
     7
421
 16777215
176
     1
 74
     2
176
     1
 91
        2
176
     1
 64
     7
176
     1
 65
   257
176
     1
 75
     1
176
     1
175
     1
176
     1
 42
40.0
176
     1
 92
        8
176
     1
 66
     7
176
     1
 43
1.0
176
     1
 76
     1
176
     1
 77
     6
176
     1
 78
     2
176
     1
 67
     7
176
     1
 79
     3
176
     1
170
     0
176
     1
171
     0
176
     1
290
     0
176
     1
 93
        1
176
     1
 44
0.0
176
     1
173
     0
176
     1
  0
VISUALSTYLE
  5
35
102
{ACAD_REACTORS
330
2A
102
}
330
2A
100
AcDbVisualStyle
  2
Dim
 70
    11
177
     2
291
     1
 71
     2
176
     1
 72
     2
176
     1
 73
     0
176
     1
 90
        0
176
     1
 40
-0.6
176
     1
 41
-30.0
176
     1
 62
     5
 63
     7
421
 16777215
176
     1
 74
     1
176
     1
 91
        4
176
     1
 64
     7
176
     1
 65
   257
176
     1
 75
     1
176
     1
175
     1
176
     1
 42
1.0
176
     1
 92
        8
176
     1
 66
     7
176
     1
 43
1.0
176
     1
 76
     1
176
     1
 77
     6
176
     1
 78
     2
176
     1
 67
     7
176
     1
 79
     5
176
     1
170
     0
176
     1
171
     0
176
     1
290
     0
176
     1
 93
        1
176
     1
 44
-50.0
176
     1
173
     0
176
     1
  0
VISUALSTYLE
  5
39
102
{ACAD_REACTORS
330
2A
102
}
330
2A
100
AcDbVisualStyle
  2
Facepattern
 70
    15
177
     2
291
     1
 71
     2
176
     1
 72
     2
176
     1
 73
     0
176
     1
 90
        0
176
     1
 40
-0.6
176
     1
 41
-30.0
176
     1
 62
     5
 63
     7
421
 16777215
176
     1
 74
     1
176
     1
 91
        4
176
     1
 64
     7
176
     1
 65
   257
176
     1
 75
     1
176
     1
175
     1
176
     1
 42
1.0
176
     1
 92
        8
176
     1
 66
     7
176
     1
 43
1.0
176
     1
 76
     1
176
     1
 77
     6
176
     1
 78
     2
176
     1
 67
     7
176
     1
 79
     5
176
     1
170
     0
176
     1
171
     0
176
     1
290
     0
176
     1
 93
        1
176
     1
 44
0.0
176
     1
173
     0
176
     1
  0
VISUALSTYLE
  5
2B
102
{ACAD_REACTORS
330
2A
102
}
330
2A
100
AcDbVisualStyle
  2
Flat
 70
     0
177
     2
291
     1
 71
     2
176
     1
 72
     1
176
     1
 73
     1
176
     1
 90
        2
176
     1
 40
-0.6
176
     1
 41
30.0
176
     1
 62
     5
 63
     7
421
 16777215
176
     1
 74
     0
176
     1
 91
        4
176
     1
 64
     7
176
     1
 65
   257
176
     1
 75
     1
176
     1
175
     1
176
     1
 42
1.0
176
     1
 92
        8
176
     1
 66
     7
176
     1
 43
1.0
176
     1
 76
     1
176
     1
 77
     6
176
     1
 78
     2
176
     1
 67
     7
176
     1
 79
     5
176
     1
170
     0
176
     1
171
     0
176
     1
290
     0
176
     1
 93
       13
176
     1
 44
0.0
176
     1
173
     0
176
     1
  0
VISUALSTYLE
  5
2C
102
{ACAD_REACTORS
330
2A
102
}
330
2A
100
AcDbVisualStyle
  2
FlatWithEdges
 70
     1
177
     2
291
     1
 71
     2
176
     1
 72
     1
176
     1
 73
     1
176
     1
 90
        2
176
     1
 40
-0.6
176
     1
 41
30.0
176
     1
 62
     5
 63
     7
421
 16777215
176
     1
 74
     1
176
     1
 91
        4
176
     1
 64
     7
176
     1
 65
   257
176
     1
 75
     1
176
     1
175
     1
176
     1
 42
1.0
176
     1
 92
        0
176
     1
 66
   257
176
     1
 43
1.0
176
     1
 76
     1
176
     1
 77
     6
176
     1
 78
     2
176
     1
 67
     7
176
     1
 79
     5
176
     1
170
     0
176
     1
171
     0
176
     1
290
     0
176
     1
 93
       13
176
     1
 44
0.0
176
     1
173
     0
176
     1
  0
VISUALSTYLE
  5
2D
102
{ACAD_REACTORS
330
2A
102
}
330
2A
100
AcDbVisualStyle
  2
Gouraud
 70
     2
177
     2
291
     1
 71
     2
176
     1
 72
     2
176
     1
 73
     1
176
     1
 90
        2
176
     1
 40
-0.6
176
     1
 41
30.0
176
     1
 62
     5
 63
     7
421
 16777215
176
     1
 74
     0
176
     1
 91
        4
176
     1
 64
     7
176
     1
 65
   257
176
     1
 75
     1
176
     1
175
     1
176
     1
 42
1.0
176
     1
 92
        0
176
     1
 66
     7
176
     1
 43
1.0
176
     1
 76
     1
176
     1
 77
     6
176
     1
 78
     2
176
     1
 67
     7
176
     1
 79
     5
176
     1
170
     0
176
     1
171
     0
176
     1
290
     0
176
     1
 93
       13
176
     1
 44
0.0
176
     1
173
     0
176
     1
  0
VISUALSTYLE
  5
2E
102
{ACAD_REACTORS
330
2A
102
}
330
2A
100
AcDbVisualStyle
  2
GouraudWithEdges
 70
     3
177
     2
291
     1
 71
     2
176
     1
 72
     2
176
     1
 73
     1
176
     1
 90
        2
176
     1
 40
-0.6
176
     1
 41
30.0
176
     1
 62
     5
 63
     7
421
 16777215
176
     1
 74
     1
176
     1
 91
        4
176
     1
 64
     7
176
     1
 65
   257
176
     1
 75
     1
176
     1
175
     1
176
     1
 42
1.0
176
     1
 92
        0
176
     1
 66
   257
176
     1
 43
1.0
176
     1
 76
     1
176
     1
 77
     6
176
     1
 78
     2
176
     1
 67
     7
176
     1
 79
     5
176
     1
170
     0
176
     1
171
     0
176
     1
290
     0
176
     1
 93
       13
176
     1
 44
0.0
176
     1
173
     0
176
     1
  0
VISUALSTYLE
  5
38
102
{ACAD_REACTORS
330
2A
102
}
330
2A
100
AcDbVisualStyle
  2
Linepattern
 70
    14
177
     2
291
     1
 71
     2
176
     1
 72
     2
176
     1
 73
     0
176
     1
 90
        0
176
     1
 40
-0.6
176
     1
 41
-30.0
176
     1
 62
     5
 63
     7
421
 16777215
176
     1
 74
     1
176
     1
 91
        4
176
     1
 64
     7
176
     1
 65
   257
176
     1
 75
     7
176
     1
175
     7
176
     1
 42
1.0
176
     1
 92
        8
176
     1
 66
     7
176
     1
 43
1.0
176
     1
 76
     1
176
     1
 77
     6
176
     1
 78
     2
176
     1
 67
     7
176
     1
 79
     5
176
     1
170
     0
176
     1
171
     0
176
     1
290
     0
176
     1
 93
        1
176
     1
 44
0.0
176
     1
173
     0
176
     1
  0
VISUALSTYLE
  5
33
102
{ACAD_REACTORS
330
2A
102
}
330
2A
100
AcDbVisualStyle
  2
Realistic
 70
     8
177
     2
291
     0
 71
     2
176
     1
 72
     2
176
     1
 73
     0
176
     1
 90
        0
176
     1
 40
-0.6
176
     1
 41
-30.0
176
     1
 62
     5
 63
     7
421
 16777215
176
     1
 74
     1
176
     1
 91
        0
176
     1
 64
     7
176
     1
 65
   257
176
     1
 75
     1
176
     1
175
     1
176
     1
 42
1.0
176
     1
 92
        8
176
     1
 66
     8
424
  7895160
176
     1
 43
1.0
176
     1
 76
     1
176
     1
 77
     6
176
     1
 78
     2
176
     1
 67
     7
176
     1
 79
     5
176
     1
170
     0
176
     1
171
     0
176
     1
290
     0
176
     1
 93
       13
176
     1
 44
0.0
176
     1
173
     0
176
     1
  0
VISUALSTYLE
  5
37
102
{ACAD_REACTORS
330
2A
102
}
330
2A
100
AcDbVisualStyle
  2
Thicken
 70
    13
177
     2
291
     1
 71
     2
176
     1
 72
     2
176
     1
 73
     0
176
     1
 90
        0
176
     1
 40
-0.6
176
     1
 41
-30.0
176
     1
 62
     5
 63
     7
421
 16777215
176
     1
 74
     1
176
     1
 91
        4
176
     1
 64
     7
176
     1
 65
   257
176
     1
 75
     1
176
     1
175
     1
176
     1
 42
1.0
176
     1
 92
       12
176
     1
 66
     7
176
     1
 43
1.0
176
     1
 76
     1
176
     1
 77
     6
176
     1
 78
     2
176
     1
 67
     7
176
     1
 79
     5
176
     1
170
     0
176
     1
171
     0
176
     1
290
     0
176
     1
 93
        1
176
     1
 44
0.0
176
     1
173
     0
176
     1
  0
ENDSEC
  0
EOF
